<svg width="145" height="27" viewBox="0 0 145 27" fill="none" xmlns="http://www.w3.org/2000/svg">
<g clip-path="url(#clip0_260_5799)">
<path d="M38.9657 14.1316C39.2629 14.5397 39.4152 15.0369 39.398 15.543C39.4136 15.8989 39.3381 16.253 39.1788 16.571C39.0195 16.889 38.7817 17.1604 38.4883 17.3589C37.8819 17.7833 36.9977 17.9956 35.8357 17.9956H31.4415C31.4136 17.9958 31.386 17.9904 31.3601 17.9798C31.3343 17.9692 31.3108 17.9535 31.291 17.9337C31.2712 17.9138 31.2555 17.8903 31.2448 17.8643C31.234 17.8383 31.2285 17.8104 31.2285 17.7823V9.21386C31.2285 9.15688 31.251 9.10224 31.2909 9.06195C31.3309 9.02166 31.385 8.99902 31.4415 8.99902H35.5807C36.666 8.99902 37.4994 9.20811 38.081 9.62629C38.3572 9.81377 38.5821 10.0686 38.7346 10.3672C38.8871 10.6657 38.9623 10.9983 38.9533 11.334C38.9601 11.7451 38.8524 12.1499 38.6423 12.5023C38.5044 12.7306 38.325 12.9307 38.1136 13.0919C38.0837 13.1132 38.0597 13.142 38.0441 13.1754C38.0286 13.2089 38.0218 13.2458 38.0247 13.2826C38.0275 13.3195 38.0397 13.3549 38.0602 13.3856C38.0807 13.4162 38.1088 13.4409 38.1416 13.4573C38.4659 13.6122 38.7486 13.8435 38.9657 14.1316ZM33.2779 10.782V12.4725C33.2779 12.5291 33.3002 12.5833 33.3398 12.6233C33.3795 12.6633 33.4333 12.6858 33.4893 12.6858H35.3257C35.8357 12.6858 36.2218 12.5959 36.4841 12.416C36.6128 12.3296 36.7169 12.2108 36.7861 12.0714C36.8554 11.9319 36.8874 11.7767 36.879 11.621C36.8869 11.4669 36.8545 11.3134 36.7852 11.1758C36.7159 11.0383 36.6121 10.9214 36.4841 10.8369C36.2218 10.6613 35.8357 10.5735 35.3257 10.5735H33.4893C33.4341 10.5734 33.381 10.5953 33.3414 10.6343C33.3019 10.6732 33.2791 10.7263 33.2779 10.782ZM36.9101 16.153C37.0461 16.0633 37.1561 15.9388 37.2288 15.7923C37.3015 15.6457 37.3342 15.4823 37.3237 15.3187C37.3237 14.5744 36.7764 14.2022 35.6818 14.2022H33.4893C33.4614 14.2022 33.4338 14.2078 33.4081 14.2186C33.3823 14.2294 33.3589 14.2452 33.3393 14.2652C33.3196 14.2852 33.3041 14.3089 33.2935 14.3349C33.283 14.361 33.2777 14.3889 33.2779 14.417V16.2079C33.277 16.2364 33.2819 16.2648 33.2922 16.2914C33.3024 16.318 33.3179 16.3423 33.3376 16.3627C33.3573 16.3832 33.3809 16.3995 33.407 16.4106C33.433 16.4217 33.461 16.4274 33.4893 16.4274H35.6818C36.226 16.4274 36.6349 16.3318 36.9101 16.153Z" fill="#757575"/>
<path d="M41.4943 9.00342H43.13C43.1863 9.00383 43.24 9.02665 43.2797 9.06689C43.3193 9.10714 43.3415 9.16155 43.3415 9.21826V17.7742C43.3425 17.8028 43.3378 17.8314 43.3277 17.8582C43.3175 17.885 43.3021 17.9094 43.2824 17.9301C43.2626 17.9507 43.239 17.9671 43.2128 17.9783C43.1866 17.9895 43.1585 17.9953 43.13 17.9953H41.4943C41.438 17.9953 41.3841 17.9728 41.3442 17.9329C41.3043 17.8929 41.2817 17.8387 41.2812 17.782V9.21355C41.2829 9.15752 41.306 9.10431 41.3457 9.06511C41.3854 9.02592 41.4387 9.0038 41.4943 9.00342Z" fill="#757575"/>
<path d="M54.361 13.7519C54.361 16.482 52.4749 18.1427 49.9949 18.1427C47.21 18.1427 45.212 16.0759 45.212 13.5104C45.2086 12.8955 45.3267 12.2861 45.5592 11.7176C45.7918 11.1492 46.1341 10.6332 46.5664 10.1995C46.9987 9.7659 47.5122 9.42338 48.0771 9.19191C48.6419 8.96045 49.2468 8.84468 49.8565 8.85135C51.4611 8.85135 52.8279 9.6072 53.6038 10.7049C53.6201 10.7286 53.6313 10.7555 53.6368 10.7838C53.6422 10.8122 53.6418 10.8413 53.6355 10.8695C53.6292 10.8976 53.6172 10.9242 53.6003 10.9474C53.5833 10.9706 53.5617 10.99 53.5369 11.0044L52.1717 11.7885C52.1291 11.8135 52.0791 11.8223 52.0307 11.8134C51.9822 11.8045 51.9385 11.7784 51.9074 11.7399C51.5062 11.2224 50.7599 10.8366 49.8425 10.8366C48.3498 10.8366 47.2365 11.9469 47.2365 13.5166C47.2365 15.0362 48.2985 16.1464 50.0197 16.1464C51.1284 16.1464 52.0722 15.5443 52.2946 14.7759C52.3008 14.76 52.3032 14.7428 52.3014 14.7258C52.2997 14.7088 52.294 14.6924 52.2847 14.6781C52.2754 14.6638 52.2628 14.652 52.248 14.6436C52.2332 14.6352 52.2166 14.6306 52.1997 14.63H50.127C50.0722 14.63 50.0196 14.6081 49.9808 14.5689C49.942 14.5298 49.9202 14.4768 49.9202 14.4215V13.1889C49.9202 13.1336 49.942 13.0805 49.9808 13.0414C50.0196 13.0023 50.0722 12.9803 50.127 12.9803H54.1573C54.2119 12.9807 54.2641 13.0029 54.3026 13.042C54.341 13.081 54.3626 13.1338 54.3626 13.1889L54.361 13.7519Z" fill="#757575"/>
<path d="M31.7461 23.8998C31.6001 23.8539 31.4669 23.7739 31.3574 23.6661L31.46 23.4638C31.5611 23.5616 31.6821 23.6359 31.8146 23.6818C31.9608 23.7367 32.1156 23.7649 32.2717 23.7649C32.4456 23.7773 32.6191 23.7345 32.7677 23.6426C32.8189 23.6082 32.8609 23.5616 32.89 23.5069C32.919 23.4521 32.9341 23.391 32.9341 23.329C32.936 23.2851 32.929 23.2414 32.9134 23.2004C32.8979 23.1594 32.8743 23.122 32.8439 23.0906C32.7814 23.0298 32.7066 22.9833 32.6247 22.9542C32.5057 22.913 32.3848 22.878 32.2624 22.8491C32.1114 22.8131 31.9629 22.7675 31.8177 22.7127C31.7088 22.6695 31.6118 22.6007 31.5347 22.512C31.4524 22.4088 31.4109 22.2787 31.4181 22.1466C31.4173 22.0255 31.4513 21.9067 31.516 21.8047C31.5902 21.6943 31.6952 21.6086 31.8177 21.5585C31.9782 21.4918 32.151 21.4603 32.3246 21.466C32.4645 21.4656 32.6037 21.4851 32.7382 21.524C32.8625 21.5565 32.9807 21.6095 33.088 21.6808L33.0009 21.891C32.8001 21.7575 32.5651 21.6856 32.3246 21.684C32.1529 21.6716 31.982 21.7162 31.8379 21.811C31.7865 21.8476 31.7447 21.8963 31.7163 21.9528C31.6878 22.0094 31.6735 22.0722 31.6746 22.1356C31.6726 22.1793 31.6794 22.223 31.6947 22.264C31.7099 22.3049 31.7332 22.3424 31.7632 22.374C31.8272 22.4368 31.9042 22.4845 31.9887 22.5135C32.0789 22.5449 32.2002 22.5794 32.3526 22.617C32.5012 22.6525 32.6477 22.697 32.791 22.7503C32.9001 22.7923 32.9973 22.8607 33.074 22.9495C33.1561 23.0509 33.1977 23.1795 33.1906 23.3102C33.1914 23.4317 33.1562 23.5507 33.0896 23.652C33.0124 23.763 32.9041 23.8482 32.7786 23.8966C32.6164 23.9612 32.4429 23.9922 32.2686 23.9876C32.0908 23.9883 31.9141 23.9586 31.7461 23.8998Z" fill="#0C0C0C"/>
<path d="M34.0666 23.862C33.9256 23.7822 33.8089 23.6651 33.7292 23.5233C33.6486 23.373 33.6064 23.2048 33.6064 23.034C33.6064 22.8631 33.6486 22.695 33.7292 22.5447C33.8085 22.403 33.9253 22.2862 34.0666 22.2076C34.2151 22.1283 34.3806 22.0869 34.5486 22.0869C34.7166 22.0869 34.8821 22.1283 35.0306 22.2076C35.1718 22.2859 35.2882 22.4027 35.3665 22.5447C35.4461 22.6953 35.4878 22.8633 35.4878 23.034C35.4878 23.2046 35.4461 23.3727 35.3665 23.5233C35.2878 23.6654 35.1716 23.7826 35.0306 23.862C34.8825 23.9423 34.7169 23.9843 34.5486 23.9843C34.3804 23.9843 34.2148 23.9423 34.0666 23.862ZM34.9016 23.6707C35.0065 23.6107 35.0918 23.5214 35.1473 23.4135C35.2045 23.2953 35.2343 23.1655 35.2343 23.034C35.2343 22.9025 35.2045 22.7727 35.1473 22.6545C35.0918 22.5466 35.0065 22.4572 34.9016 22.3973C34.7934 22.3376 34.672 22.3063 34.5486 22.3063C34.4253 22.3063 34.3039 22.3376 34.1957 22.3973C34.0909 22.4578 34.0052 22.547 33.9484 22.6545C33.8901 22.7723 33.8598 22.9023 33.8598 23.034C33.8598 23.1657 33.8901 23.2956 33.9484 23.4135C34.0052 23.521 34.0909 23.6101 34.1957 23.6707C34.3039 23.7304 34.4253 23.7617 34.5486 23.7617C34.672 23.7617 34.7934 23.7304 34.9016 23.6707Z" fill="#0C0C0C"/>
<path d="M37.5886 22.1011L36.7645 23.9672H36.5079L35.6885 22.1011H35.9497L36.6416 23.6912L37.3413 22.1011H37.5886Z" fill="#0C0C0C"/>
<path d="M39.586 23.1125H38.0311C38.0351 23.2019 38.0569 23.2896 38.0951 23.3704C38.1333 23.4512 38.1871 23.5235 38.2535 23.5829C38.3942 23.7046 38.5752 23.7684 38.7604 23.7617C38.8672 23.7626 38.9731 23.7412 39.0714 23.699C39.1674 23.6584 39.2531 23.5961 39.3217 23.5171L39.4632 23.6739C39.3794 23.774 39.2726 23.852 39.1522 23.9013C39.0228 23.9538 38.8843 23.9799 38.7448 23.9781C38.5693 23.9816 38.3958 23.9395 38.241 23.8558C38.0973 23.7776 37.9782 23.6602 37.8974 23.5171C37.814 23.3679 37.7716 23.199 37.7746 23.0278C37.7715 22.8572 37.8122 22.6886 37.8927 22.5385C37.9673 22.3979 38.0793 22.2811 38.2162 22.2014C38.3574 22.1221 38.5163 22.0806 38.678 22.0806C38.8396 22.0806 38.9985 22.1221 39.1398 22.2014C39.275 22.2816 39.3858 22.3976 39.4601 22.537C39.5387 22.6882 39.5782 22.857 39.5751 23.0278L39.586 23.1125ZM38.2442 22.4758C38.1215 22.5936 38.0476 22.7538 38.0374 22.9243H39.3497C39.3408 22.7538 39.2673 22.5933 39.1444 22.4758C39.0219 22.3606 38.8594 22.2986 38.692 22.3033C38.6097 22.3008 38.5278 22.3147 38.4509 22.3443C38.374 22.3739 38.3038 22.4186 38.2442 22.4758Z" fill="#0C0C0C"/>
<path d="M40.6892 22.1826C40.8224 22.1146 40.9706 22.0817 41.1199 22.087V22.3316H41.0608C40.9762 22.3269 40.8916 22.3405 40.8128 22.3716C40.7339 22.4027 40.6626 22.4506 40.6036 22.5119C40.4856 22.6535 40.4261 22.8354 40.4373 23.02V23.9703H40.1885V22.1042H40.4279V22.4696C40.4811 22.3474 40.573 22.2464 40.6892 22.1826Z" fill="#0C0C0C"/>
<path d="M43.2512 23.1123H41.7041C41.7078 23.2016 41.7293 23.2893 41.7672 23.3701C41.8051 23.4509 41.8587 23.5232 41.9249 23.5828C42.0656 23.7044 42.2466 23.7682 42.4318 23.7615C42.5386 23.7622 42.6444 23.7408 42.7428 23.6988C42.8384 23.6582 42.9235 23.5959 42.9915 23.5169L43.133 23.6737C43.0492 23.7738 42.9425 23.8519 42.8221 23.9011C42.6932 23.9538 42.5552 23.9799 42.4162 23.9779C42.2402 23.9814 42.0662 23.9393 41.9109 23.8556C41.7675 23.777 41.6485 23.6597 41.5673 23.5169C41.4845 23.3675 41.4422 23.1988 41.4444 23.0276C41.446 22.8575 41.491 22.6906 41.575 22.5431C41.65 22.4028 41.7619 22.2861 41.8984 22.2059C42.0404 22.1241 42.2015 22.0824 42.3649 22.0852C42.5284 22.0816 42.6898 22.1234 42.8314 22.2059C42.967 22.2856 43.0779 22.4018 43.1517 22.5415C43.2315 22.6924 43.2717 22.8614 43.2683 23.0323L43.2512 23.1123ZM41.9093 22.4756C41.7871 22.5936 41.7138 22.7538 41.7041 22.9241H43.0164C43.0062 22.7537 42.9323 22.5934 42.8096 22.4756C42.6856 22.3645 42.5254 22.3032 42.3595 22.3032C42.1936 22.3032 42.0334 22.3645 41.9093 22.4756Z" fill="#0C0C0C"/>
<path d="M43.8498 21.6398C43.8328 21.6235 43.8193 21.6037 43.8102 21.5819C43.8011 21.56 43.7966 21.5365 43.7969 21.5128C43.7966 21.4894 43.8012 21.4661 43.8103 21.4445C43.8194 21.4229 43.8328 21.4034 43.8498 21.3874C43.8669 21.3701 43.8872 21.3565 43.9097 21.3473C43.9321 21.3382 43.9562 21.3336 43.9804 21.3341C44.0042 21.3334 44.028 21.3376 44.0502 21.3465C44.0724 21.3554 44.0925 21.3688 44.1094 21.3858C44.1266 21.401 44.1403 21.4199 44.1494 21.441C44.1585 21.4622 44.1629 21.4851 44.1623 21.5081C44.1629 21.5326 44.1585 21.5568 44.1494 21.5795C44.1403 21.6022 44.1267 21.6227 44.1094 21.6398C44.0928 21.6574 44.0728 21.6712 44.0505 21.6804C44.0283 21.6896 44.0044 21.6939 43.9804 21.6932C43.9561 21.6939 43.932 21.6896 43.9095 21.6804C43.887 21.6712 43.8666 21.6574 43.8498 21.6398ZM43.8498 22.1009H44.1001V23.967H43.8498V22.1009Z" fill="#0C0C0C"/>
<path d="M46.5997 22.1009V23.7397C46.6106 23.8666 46.5958 23.9945 46.5563 24.1155C46.5167 24.2366 46.4532 24.3482 46.3695 24.4438C46.2744 24.5263 46.164 24.5891 46.0447 24.6284C45.9254 24.6677 45.7996 24.6827 45.6745 24.6727C45.5093 24.6736 45.3451 24.6482 45.1878 24.5975C45.0494 24.5545 44.9217 24.4823 44.8131 24.3857L44.939 24.1944C45.0347 24.278 45.1456 24.342 45.2655 24.3826C45.3952 24.4273 45.5313 24.4501 45.6683 24.45C45.8551 24.4658 46.0406 24.4067 46.1845 24.2854C46.2446 24.2153 46.2902 24.1339 46.3188 24.0459C46.3474 23.9578 46.3583 23.8649 46.3509 23.7726V23.5342C46.2739 23.6514 46.1663 23.7448 46.0399 23.804C45.9098 23.8664 45.7673 23.898 45.6232 23.8965C45.458 23.8983 45.2949 23.8584 45.1489 23.7804C45.0101 23.7065 44.8948 23.5945 44.8162 23.4574C44.7351 23.3141 44.6924 23.152 44.6924 22.9869C44.6924 22.8219 44.7351 22.6598 44.8162 22.5165C44.8965 22.3837 45.011 22.2754 45.1474 22.2029C45.2943 22.1263 45.4578 22.0875 45.6232 22.09C45.7702 22.0877 45.9156 22.1204 46.0477 22.1856C46.1749 22.2472 46.2826 22.3433 46.3586 22.4632V22.1041L46.5997 22.1009ZM46.0166 23.586C46.1212 23.5306 46.2081 23.4463 46.2669 23.3429C46.3283 23.2352 46.3594 23.1127 46.3571 22.9885C46.3598 22.8648 46.3286 22.7427 46.2669 22.6357C46.2082 22.5331 46.122 22.4494 46.0181 22.3942C45.906 22.3347 45.7809 22.3046 45.6543 22.3064C45.5287 22.304 45.4047 22.3337 45.2935 22.3926C45.1893 22.4472 45.1025 22.5303 45.0432 22.6325C44.984 22.7414 44.953 22.8636 44.953 22.9877C44.953 23.1119 44.984 23.2341 45.0432 23.3429C45.1025 23.4459 45.1892 23.5301 45.2935 23.586C45.4047 23.6449 45.5287 23.6746 45.6543 23.6722C45.7803 23.6742 45.9048 23.6446 46.0166 23.586Z" fill="#0C0C0C"/>
<path d="M48.8828 22.2906C48.9551 22.3705 49.0106 22.4644 49.0459 22.5665C49.0812 22.6687 49.0955 22.7771 49.088 22.885V23.967H48.8377V22.9101C48.8483 22.7491 48.7971 22.5901 48.6946 22.4663C48.6407 22.4125 48.5761 22.3707 48.5051 22.3437C48.4341 22.3167 48.3583 22.305 48.2826 22.3095C48.1968 22.3057 48.1113 22.3197 48.0311 22.3504C47.9509 22.3811 47.8777 22.428 47.8161 22.4882C47.7556 22.5549 47.7091 22.6331 47.6792 22.7182C47.6492 22.8033 47.6366 22.8936 47.6419 22.9838V23.9623H47.3916V22.0962H47.6311V22.4412C47.6984 22.3274 47.7966 22.2355 47.914 22.1762C48.0445 22.1114 48.1885 22.0791 48.3339 22.0821C48.4345 22.0783 48.5349 22.0948 48.6292 22.1306C48.7234 22.1664 48.8096 22.2208 48.8828 22.2906Z" fill="#0C0C0C"/>
<path d="M50.8329 23.8543C50.7825 23.899 50.7231 23.9321 50.6587 23.9515C50.5888 23.9735 50.5159 23.9846 50.4426 23.9844C50.3698 23.9893 50.2967 23.9794 50.2278 23.9551C50.1588 23.9309 50.0955 23.8928 50.0414 23.8433C49.9921 23.7896 49.9541 23.7263 49.9297 23.6573C49.9054 23.5883 49.8953 23.515 49.9 23.4419V22.3144H49.5703V22.1011H49.9V21.6934H50.1503V22.1011H50.7132V22.3144H50.1503V23.4278C50.144 23.52 50.1736 23.6111 50.2327 23.6818C50.2642 23.7122 50.3016 23.7355 50.3426 23.7504C50.3835 23.7653 50.4272 23.7713 50.4706 23.768C50.5234 23.7688 50.5759 23.7609 50.6261 23.7445C50.6719 23.7291 50.7142 23.7046 50.7505 23.6724L50.8329 23.8543Z" fill="#0C0C0C"/>
<path d="M52.8942 22.1011L51.969 24.1914C51.915 24.3359 51.8251 24.4639 51.7078 24.5631C51.6049 24.6381 51.4802 24.6767 51.3533 24.6729C51.268 24.6736 51.1833 24.6593 51.1029 24.6305C51.0275 24.6038 50.959 24.5604 50.9023 24.5035L51.019 24.3153C51.0629 24.3605 51.1154 24.3963 51.1734 24.4206C51.2314 24.4448 51.2936 24.457 51.3564 24.4565C51.4343 24.4586 51.5106 24.4337 51.5725 24.3859C51.6464 24.3197 51.7039 24.237 51.7404 24.1444L51.8213 23.9641L50.9941 22.1011H51.2538L51.9504 23.6865L52.6469 22.1011H52.8942Z" fill="#0C0C0C"/>
<path d="M54.3965 21.334H54.6359V24.6554H54.4043L54.3965 21.334Z" fill="#0C0C0C"/>
<path d="M58.5899 21.4829V23.9669H58.3318V22.8206H56.7909V23.9669H56.5312V21.4829H56.7909V22.59H58.3318V21.4829H58.5899Z" fill="#0C0C0C"/>
<path d="M59.7004 23.862C59.5594 23.7822 59.4427 23.6651 59.363 23.5233C59.2824 23.373 59.2402 23.2048 59.2402 23.034C59.2402 22.8631 59.2824 22.695 59.363 22.5447C59.4423 22.403 59.5591 22.2862 59.7004 22.2076C59.8489 22.1283 60.0144 22.0869 60.1824 22.0869C60.3504 22.0869 60.5159 22.1283 60.6644 22.2076C60.8056 22.2859 60.922 22.4027 61.0003 22.5447C61.0799 22.6953 61.1216 22.8633 61.1216 23.034C61.1216 23.2046 61.0799 23.3727 61.0003 23.5233C60.9216 23.6654 60.8054 23.7826 60.6644 23.862C60.5163 23.9423 60.3506 23.9843 60.1824 23.9843C60.0142 23.9843 59.8486 23.9423 59.7004 23.862ZM60.5369 23.6707C60.6412 23.6105 60.726 23.5212 60.7811 23.4135C60.8394 23.2956 60.8697 23.1657 60.8697 23.034C60.8697 22.9023 60.8394 22.7723 60.7811 22.6545C60.726 22.5468 60.6412 22.4575 60.5369 22.3973C60.4284 22.3376 60.3068 22.3063 60.1832 22.3063C60.0596 22.3063 59.938 22.3376 59.8295 22.3973C59.7246 22.4572 59.6392 22.5466 59.5838 22.6545C59.5245 22.7721 59.4936 22.9021 59.4936 23.034C59.4936 23.1659 59.5245 23.2959 59.5838 23.4135C59.6392 23.5214 59.7246 23.6108 59.8295 23.6707C59.938 23.7304 60.0596 23.7616 60.1832 23.7616C60.3068 23.7616 60.4284 23.7304 60.5369 23.6707Z" fill="#0C0C0C"/>
<path d="M61.7197 21.334H61.9701V23.9669H61.7197V21.334Z" fill="#0C0C0C"/>
<path d="M62.7511 21.6398C62.7341 21.6235 62.7207 21.6037 62.7116 21.5819C62.7025 21.56 62.6979 21.5365 62.6983 21.5128C62.698 21.4894 62.7025 21.4661 62.7116 21.4445C62.7207 21.4229 62.7342 21.4034 62.7511 21.3874C62.7682 21.3701 62.7886 21.3565 62.8111 21.3473C62.8335 21.3382 62.8575 21.3336 62.8817 21.3341C62.9056 21.3334 62.9294 21.3376 62.9516 21.3465C62.9737 21.3554 62.9939 21.3688 63.0108 21.3858C63.028 21.401 63.0416 21.4199 63.0508 21.441C63.0599 21.4622 63.0643 21.4851 63.0637 21.5081C63.0643 21.5326 63.0599 21.5568 63.0508 21.5795C63.0417 21.6022 63.0281 21.6227 63.0108 21.6398C62.9942 21.6574 62.9741 21.6712 62.9519 21.6804C62.9297 21.6896 62.9058 21.6939 62.8817 21.6932C62.8575 21.6939 62.8333 21.6896 62.8109 21.6804C62.7884 21.6712 62.768 21.6574 62.7511 21.6398ZM62.7511 22.1009H63.0015V23.967H62.7511V22.1009Z" fill="#0C0C0C"/>
<path d="M63.8531 23.9198C63.7359 23.8865 63.6265 23.83 63.5312 23.7535L63.6448 23.556C63.7318 23.625 63.8302 23.6781 63.9355 23.7128C64.054 23.7518 64.1779 23.7714 64.3025 23.7708C64.4323 23.7798 64.5621 23.7521 64.6772 23.6908C64.7153 23.6676 64.7465 23.6346 64.7678 23.5952C64.7891 23.5558 64.7997 23.5114 64.7985 23.4666C64.7991 23.4371 64.7935 23.4079 64.782 23.3808C64.7704 23.3538 64.7533 23.3295 64.7316 23.3098C64.6821 23.268 64.6243 23.2376 64.5621 23.2204C64.4732 23.1958 64.3828 23.1764 64.2916 23.1623C64.1691 23.1407 64.0481 23.1114 63.9293 23.0745C63.8387 23.044 63.7577 22.9899 63.6945 22.9177C63.6265 22.8353 63.5921 22.7299 63.5981 22.6229C63.5972 22.548 63.6145 22.474 63.6484 22.4073C63.6822 22.3407 63.7317 22.2833 63.7925 22.2403C63.9498 22.1297 64.1389 22.0745 64.3305 22.0835C64.4518 22.0834 64.5726 22.0998 64.6896 22.1321C64.7942 22.1576 64.8939 22.1999 64.9851 22.2575L64.8747 22.4598C64.7137 22.352 64.5236 22.2972 64.3305 22.303C64.2031 22.293 64.0758 22.3219 63.9651 22.3861C63.9276 22.41 63.8969 22.4432 63.8757 22.4824C63.8545 22.5216 63.8435 22.5657 63.8438 22.6104C63.8425 22.6419 63.848 22.6733 63.8598 22.7025C63.8716 22.7317 63.8895 22.758 63.9122 22.7797C63.9604 22.8252 64.0192 22.8576 64.0832 22.8738C64.1759 22.8997 64.2698 22.9206 64.3647 22.9365C64.4843 22.958 64.6027 22.9862 64.7192 23.0212C64.8069 23.0484 64.8858 23.0988 64.9478 23.1671C65.0148 23.2456 65.0488 23.3474 65.0426 23.4509C65.0445 23.5277 65.0269 23.6037 64.9916 23.6718C64.9562 23.7398 64.9042 23.7977 64.8405 23.8398C64.6724 23.9444 64.4764 23.9942 64.2792 23.9825C64.1348 23.9835 63.9912 23.9624 63.8531 23.9198Z" fill="#0C0C0C"/>
<path d="M66.5712 23.8543C66.5207 23.899 66.4613 23.9321 66.397 23.9515C66.3271 23.9735 66.2542 23.9846 66.1809 23.9844C66.108 23.9928 66.0342 23.9846 65.9649 23.9604C65.8956 23.9362 65.8326 23.8965 65.7805 23.8445C65.7284 23.7924 65.6886 23.7292 65.6639 23.6595C65.6393 23.5898 65.6305 23.5154 65.6382 23.4419V22.3144H65.3086V22.1011H65.6382V21.6934H65.8886V22.1011H66.453V22.3144H65.8901V23.4278C65.8838 23.52 65.9134 23.6111 65.9725 23.6818C66.004 23.7122 66.0414 23.7355 66.0824 23.7504C66.1234 23.7653 66.167 23.7713 66.2104 23.768C66.2632 23.7688 66.3157 23.7609 66.3659 23.7445C66.4117 23.7291 66.454 23.7046 66.4903 23.6724L66.5712 23.8543Z" fill="#0C0C0C"/>
<path d="M67.1095 21.64C67.0925 21.6236 67.0791 21.6039 67.07 21.582C67.0609 21.5602 67.0563 21.5367 67.0567 21.513C67.0564 21.4895 67.0609 21.4663 67.07 21.4447C67.0791 21.4231 67.0926 21.4036 67.1095 21.3875C67.1448 21.3538 67.1915 21.335 67.2401 21.335C67.2887 21.335 67.3355 21.3538 67.3707 21.3875C67.3871 21.4033 67.4001 21.4223 67.4089 21.4434C67.4177 21.4644 67.4222 21.487 67.4221 21.5098C67.4226 21.5341 67.4183 21.5583 67.4095 21.5809C67.4007 21.6035 67.3875 21.6241 67.3707 21.6416C67.3357 21.6757 67.2889 21.6947 67.2401 21.6947C67.1914 21.6947 67.1446 21.6757 67.1095 21.6416V21.64ZM67.1095 22.101H67.3599V23.9672H67.1095V22.101Z" fill="#0C0C0C"/>
<path d="M68.4236 23.8633C68.2812 23.785 68.1636 23.6675 68.0847 23.5246C68.0041 23.374 67.9619 23.2056 67.9619 23.0345C67.9619 22.8634 68.0041 22.695 68.0847 22.5445C68.1641 22.4023 68.2816 22.2855 68.4236 22.2073C68.5745 22.1254 68.7437 22.0839 68.915 22.0866C69.0628 22.0841 69.2092 22.1163 69.3426 22.1806C69.4656 22.2416 69.5686 22.3369 69.6396 22.4551L69.453 22.5837C69.3956 22.4946 69.3156 22.4225 69.2213 22.3751C69.1243 22.3284 69.0178 22.3047 68.9103 22.3061C68.7843 22.3045 68.66 22.3359 68.5496 22.3971C68.443 22.4562 68.3559 22.5457 68.2992 22.6542C68.24 22.7721 68.2091 22.9024 68.2091 23.0345C68.2091 23.1667 68.24 23.2969 68.2992 23.4148C68.3567 23.5224 68.4436 23.6111 68.5496 23.6704C68.6597 23.7323 68.7842 23.7637 68.9103 23.7614C69.0177 23.7633 69.1241 23.7402 69.2213 23.6939C69.3154 23.6477 69.3954 23.5767 69.453 23.4885L69.6396 23.6155C69.5687 23.735 69.4642 23.8305 69.3395 23.8899C69.2071 23.9541 69.0618 23.9863 68.915 23.984C68.7436 23.9875 68.5742 23.9459 68.4236 23.8633Z" fill="#0C0C0C"/>
<path d="M71.2734 21.334H71.5051V24.6554H71.2734V21.334Z" fill="#0C0C0C"/>
<path d="M74.9585 23.3036H73.5855L73.2901 23.9669H73.0195L74.1453 21.4829H74.4018L75.5276 23.9669H75.2539L74.9585 23.3036ZM74.8621 23.0903L74.2712 21.7573L73.6804 23.0903H74.8621Z" fill="#0C0C0C"/>
<path d="M77.6675 22.101V23.7397C77.6868 23.8674 77.6759 23.9978 77.6357 24.1205C77.5955 24.2431 77.5271 24.3544 77.4362 24.4453C77.3453 24.5363 77.2343 24.6043 77.1124 24.6438C76.9905 24.6833 76.861 24.6932 76.7346 24.6727C76.5689 24.6737 76.4042 24.6483 76.2464 24.5975C76.1081 24.5541 75.9805 24.482 75.8716 24.3858L75.9991 24.1945C76.0942 24.2781 76.2046 24.342 76.3241 24.3826C76.4538 24.4273 76.5898 24.4501 76.7268 24.4501C76.9142 24.4661 77.1003 24.4069 77.2446 24.2854C77.3044 24.2152 77.3498 24.1337 77.3781 24.0457C77.4064 23.9577 77.4171 23.8648 77.4094 23.7726V23.5343C77.3329 23.6518 77.2251 23.7452 77.0985 23.804C76.9684 23.8666 76.8258 23.8982 76.6817 23.8965C76.5191 23.8973 76.3589 23.8574 76.2153 23.7805C76.076 23.7065 75.9602 23.5946 75.881 23.4574C75.8009 23.3138 75.7588 23.1518 75.7588 22.987C75.7588 22.8222 75.8009 22.6602 75.881 22.5165C75.9615 22.3834 76.0765 22.2749 76.2137 22.2029C76.3577 22.1274 76.5179 22.0886 76.6802 22.09C76.8277 22.0874 76.9737 22.1202 77.1062 22.1856C77.2329 22.248 77.3404 22.344 77.4172 22.4632V22.1041L77.6675 22.101ZM77.0829 23.586C77.1888 23.5306 77.2771 23.4464 77.3379 23.3429C77.3985 23.2349 77.4297 23.1126 77.4281 22.9885C77.4301 22.8649 77.3989 22.743 77.3379 22.6357C77.2788 22.5329 77.192 22.4492 77.0876 22.3942C76.9752 22.337 76.8511 22.3072 76.7253 22.3072C76.5994 22.3072 76.4753 22.337 76.363 22.3942C76.259 22.4485 76.1726 22.5318 76.1142 22.6341C76.055 22.743 76.024 22.8652 76.024 22.9893C76.024 23.1135 76.055 23.2356 76.1142 23.3445C76.1726 23.4477 76.2589 23.532 76.363 23.5876C76.4752 23.6443 76.599 23.6738 76.7245 23.6738C76.85 23.6738 76.9738 23.6443 77.086 23.5876L77.0829 23.586Z" fill="#0C0C0C"/>
<path d="M78.4503 21.64C78.4336 21.6234 78.4204 21.6036 78.4113 21.5818C78.4022 21.56 78.3975 21.5366 78.3975 21.513C78.3975 21.4896 78.4023 21.4664 78.4113 21.4449C78.4204 21.4233 78.4337 21.4038 78.4503 21.3875C78.4856 21.3538 78.5323 21.335 78.5809 21.335C78.6295 21.335 78.6763 21.3538 78.7116 21.3875C78.7281 21.4032 78.7413 21.4222 78.7504 21.4432C78.7595 21.4642 78.7643 21.4869 78.7644 21.5098C78.7646 21.5342 78.7601 21.5584 78.751 21.581C78.742 21.6036 78.7285 21.6242 78.7116 21.6416C78.6765 21.6757 78.6297 21.6947 78.5809 21.6947C78.5322 21.6947 78.4854 21.6757 78.4503 21.6416V21.64ZM78.4503 22.101H78.7007V23.9672H78.4503V22.101Z" fill="#0C0C0C"/>
<path d="M79.4893 21.334H79.738V23.9669H79.4893V21.334Z" fill="#0C0C0C"/>
<path d="M80.5191 21.64C80.5026 21.6233 80.4896 21.6035 80.4808 21.5817C80.4719 21.5599 80.4675 21.5365 80.4678 21.513C80.4676 21.4897 80.472 21.4666 80.4808 21.445C80.4896 21.4235 80.5027 21.4039 80.5191 21.3875C80.5543 21.3538 80.6011 21.335 80.6497 21.335C80.6983 21.335 80.7451 21.3538 80.7803 21.3875C80.7975 21.4027 80.8112 21.4216 80.8203 21.4427C80.8294 21.4639 80.8338 21.4868 80.8332 21.5098C80.8322 21.5457 80.8211 21.5806 80.801 21.6103C80.7809 21.6399 80.7527 21.6631 80.7199 21.677C80.687 21.6909 80.6509 21.6949 80.6159 21.6887C80.5808 21.6824 80.5483 21.666 80.5222 21.6416L80.5191 21.64ZM80.5191 22.101H80.7679V23.9672H80.5191V22.101Z" fill="#0C0C0C"/>
<path d="M82.5327 23.8543C82.4819 23.8985 82.4226 23.9316 82.3585 23.9515C82.2881 23.9736 82.2147 23.9847 82.1408 23.9844C82.0683 23.9892 81.9954 23.9792 81.9268 23.9549C81.8581 23.9307 81.795 23.8927 81.7412 23.8433C81.6919 23.7896 81.6539 23.7263 81.6295 23.6573C81.6052 23.5883 81.5951 23.515 81.5997 23.4419V22.3144H81.2686V22.1011H81.5997V21.6934H81.847V22.1011H82.4098V22.3144H81.847V23.4278C81.84 23.5201 81.8696 23.6115 81.9294 23.6818C81.9608 23.7122 81.9983 23.7355 82.0392 23.7504C82.0802 23.7653 82.1238 23.7713 82.1673 23.768C82.22 23.7688 82.2726 23.7609 82.3228 23.7445C82.3684 23.7287 82.4106 23.7042 82.4472 23.6724L82.5327 23.8543Z" fill="#0C0C0C"/>
<path d="M84.5928 22.1011L83.6676 24.1914C83.6141 24.3357 83.5247 24.4637 83.408 24.5631C83.3045 24.6382 83.1793 24.6767 83.0519 24.6729C82.9672 24.6735 82.883 24.6592 82.8031 24.6305C82.7277 24.6038 82.6592 24.5604 82.6025 24.5035L82.7192 24.3153C82.7631 24.3605 82.8156 24.3963 82.8736 24.4206C82.9316 24.4448 82.9938 24.457 83.0566 24.4565C83.1345 24.4583 83.2107 24.4334 83.2727 24.3859C83.346 24.3195 83.403 24.2368 83.4391 24.1444L83.5199 23.9641L82.6943 22.1011H82.9539L83.6505 23.6865L84.3471 22.1011H84.5928Z" fill="#0C0C0C"/>
<path d="M63.8417 14.1316C64.1401 14.5392 64.293 15.0366 64.2755 15.543C64.2908 15.8991 64.215 16.2531 64.0555 16.5711C63.8959 16.8892 63.6579 17.1604 63.3643 17.3589C62.7579 17.7833 61.8737 17.9956 60.7117 17.9956H56.3175C56.2613 17.9956 56.2073 17.9732 56.1674 17.9332C56.1275 17.8932 56.1049 17.839 56.1045 17.7823V9.21386C56.1049 9.15701 56.1275 9.1026 56.1673 9.0624C56.2072 9.0222 56.2611 8.99943 56.3175 8.99902H60.4567C61.544 8.99902 62.3775 9.20811 62.9569 9.62629C63.2332 9.81377 63.458 10.0686 63.6105 10.3672C63.763 10.6657 63.8383 10.9983 63.8292 11.334C63.8356 11.7451 63.7279 12.1497 63.5183 12.5023C63.3794 12.7303 63.1996 12.9303 62.988 13.0919C62.9585 13.1135 62.9349 13.1423 62.9196 13.1757C62.9043 13.2091 62.8977 13.2459 62.9005 13.2825C62.9033 13.3192 62.9154 13.3545 62.9357 13.3851C62.9559 13.4157 62.9835 13.4406 63.016 13.4573C63.3409 13.612 63.6241 13.8433 63.8417 14.1316ZM58.1538 10.782V12.4725C58.1538 12.5006 58.1594 12.5285 58.1701 12.5545C58.1808 12.5805 58.1965 12.604 58.2163 12.6239C58.2361 12.6437 58.2596 12.6594 58.2855 12.67C58.3113 12.6806 58.339 12.686 58.3669 12.6858H60.2032C60.7122 12.6858 61.0978 12.5959 61.3601 12.416C61.4887 12.3296 61.5928 12.2108 61.6621 12.0714C61.7314 11.9319 61.7634 11.7767 61.755 11.621C61.7629 11.4669 61.7305 11.3134 61.6612 11.1758C61.5919 11.0383 61.4881 10.9214 61.3601 10.8369C61.0968 10.6613 60.7111 10.5735 60.2032 10.5735H58.3684C58.3126 10.5726 58.2587 10.5941 58.2185 10.6331C58.1783 10.6722 58.1551 10.7257 58.1538 10.782ZM61.7892 16.153C61.9252 16.0633 62.0352 15.9388 62.1079 15.7923C62.1805 15.6457 62.2133 15.4823 62.2028 15.3187C62.2028 14.5744 61.6555 14.2022 60.5608 14.2022H58.3684C58.3119 14.2022 58.2577 14.2248 58.2178 14.2651C58.1778 14.3054 58.1554 14.36 58.1554 14.417V16.2079C58.1548 16.2365 58.1598 16.2649 58.1703 16.2915C58.1807 16.3181 58.1963 16.3424 58.2161 16.3628C58.236 16.3833 58.2597 16.3995 58.2858 16.4106C58.312 16.4217 58.3401 16.4274 58.3684 16.4274H60.5608C61.1019 16.4274 61.5109 16.3318 61.7892 16.153Z" fill="#4B4B4B"/>
<path d="M67.9705 17.5393C67.2493 17.1571 66.6462 16.582 66.2275 15.8771C65.8148 15.1527 65.5977 14.332 65.5977 13.4966C65.5977 12.6612 65.8148 11.8404 66.2275 11.1161C66.6458 10.4109 67.2489 9.83566 67.9705 9.45387C68.7441 9.05698 69.5998 8.8501 70.4677 8.8501C71.3356 8.8501 72.1913 9.05698 72.9649 9.45387C73.6913 9.84475 74.2987 10.4274 74.7222 11.1394C75.1458 11.8515 75.3695 12.6662 75.3695 13.4966C75.3695 14.327 75.1458 15.1417 74.7222 15.8538C74.2987 16.5658 73.6913 17.1484 72.9649 17.5393C72.191 17.9352 71.3354 18.1416 70.4677 18.1416C69.5999 18.1416 68.7444 17.9352 67.9705 17.5393ZM71.8951 16.0057C72.3153 15.7654 72.661 15.4119 72.8933 14.9848C73.1319 14.525 73.2565 14.0139 73.2565 13.495C73.2565 12.9762 73.1319 12.465 72.8933 12.0053C72.6618 11.5775 72.316 11.2238 71.8951 10.9844C71.4577 10.7446 70.9678 10.619 70.47 10.619C69.9722 10.619 69.4823 10.7446 69.045 10.9844C68.6239 11.2242 68.2777 11.5777 68.0452 12.0053C67.8066 12.465 67.682 12.9762 67.682 13.495C67.682 14.0139 67.8066 14.525 68.0452 14.9848C68.2785 15.4117 68.6246 15.765 69.045 16.0057C69.4823 16.2454 69.9722 16.371 70.47 16.371C70.9678 16.371 71.4577 16.2454 71.8951 16.0057Z" fill="#4B4B4B"/>
<path d="M82.4473 17.8966L80.5348 15.1241C80.5151 15.0956 80.489 15.0723 80.4585 15.0563C80.4281 15.0402 80.3942 15.0318 80.3598 15.0318C80.3255 15.0318 80.2916 15.0402 80.2611 15.0563C80.2307 15.0723 80.2045 15.0956 80.1849 15.1241L78.3097 17.8934C78.2904 17.922 78.2644 17.9454 78.234 17.9616C78.2037 17.9777 78.1699 17.9861 78.1355 17.986H76.2976C76.2585 17.9859 76.2201 17.9749 76.1867 17.9543C76.1533 17.9337 76.1262 17.9041 76.1083 17.869C76.0905 17.8338 76.0826 17.7943 76.0856 17.7549C76.0885 17.7155 76.1022 17.6777 76.1251 17.6457L79.0794 13.5418C79.1055 13.5056 79.1196 13.4619 79.1196 13.4171C79.1196 13.3723 79.1055 13.3287 79.0794 13.2924L76.2805 9.34068C76.2581 9.30861 76.2448 9.27096 76.2421 9.23181C76.2394 9.19266 76.2473 9.1535 76.2651 9.11859C76.2829 9.08368 76.3098 9.05436 76.343 9.03379C76.3761 9.01323 76.4142 9.00222 76.4531 9.00195H78.2708C78.3047 9.00206 78.3381 9.01037 78.3681 9.0262C78.3981 9.04203 78.424 9.06491 78.4434 9.09291L80.2549 11.6678C80.2746 11.6957 80.3006 11.7184 80.3307 11.734C80.3609 11.7497 80.3943 11.7578 80.4282 11.7578C80.4622 11.7578 80.4956 11.7497 80.5257 11.734C80.5559 11.7184 80.5819 11.6957 80.6016 11.6678L82.3773 9.09604C82.3966 9.06744 82.4226 9.04405 82.453 9.02792C82.4833 9.01179 82.5171 9.00341 82.5515 9.00352H84.2525C84.2916 9.00387 84.3298 9.01503 84.3629 9.03579C84.3961 9.05654 84.423 9.0861 84.4406 9.12122C84.4583 9.15634 84.466 9.19567 84.463 9.23493C84.46 9.27418 84.4464 9.31185 84.4236 9.34381L81.6512 13.2172C81.6253 13.2538 81.6114 13.2977 81.6114 13.3426C81.6114 13.3876 81.6253 13.4314 81.6512 13.4681L84.6459 17.6488C84.6705 17.6807 84.6856 17.719 84.6896 17.7593C84.6936 17.7995 84.6862 17.8401 84.6683 17.8763C84.6505 17.9125 84.6228 17.9429 84.5886 17.9639C84.5544 17.985 84.515 17.9959 84.4749 17.9954H82.6245C82.5892 17.995 82.5545 17.9858 82.5235 17.9686C82.4926 17.9513 82.4664 17.9266 82.4473 17.8966Z" fill="#4B4B4B"/>
<path d="M8.63126 13.4698V16.3113C8.63108 16.3269 8.6269 16.3421 8.61912 16.3555C8.61134 16.3689 8.60023 16.38 8.58689 16.3878C8.57355 16.3955 8.55844 16.3996 8.54305 16.3997C8.52765 16.3998 8.5125 16.3958 8.49909 16.3882L2.58269 13.0323C2.53609 13.0065 2.49713 12.9686 2.46981 12.9226C2.44249 12.8766 2.42779 12.8241 2.4272 12.7704V10.346C2.40792 10.0178 2.32321 9.69681 2.17814 9.40232C2.03307 9.10782 1.83062 8.84584 1.58289 8.63204C1.11642 8.26823 0.237902 7.75387 0.18348 7.71467C0.0839666 7.65037 0.0108861 7.70369 0.0108861 7.79935L6.90491e-07 11.1709V19.2328C-0.000310981 19.6363 0.104894 20.0327 0.305 20.3821C0.505105 20.7315 0.793035 21.0215 1.13974 21.2228L2.30125 21.8987C2.31489 21.9063 2.33025 21.9102 2.34583 21.91C2.3614 21.9098 2.37666 21.9056 2.39013 21.8977C2.40359 21.8898 2.4148 21.8785 2.42266 21.8649C2.43052 21.8514 2.43476 21.836 2.43498 21.8203V16.2016C2.43488 16.1859 2.43886 16.1705 2.44653 16.1569C2.4542 16.1433 2.46528 16.1319 2.47867 16.124C2.49205 16.116 2.50727 16.1118 2.5228 16.1116C2.53832 16.1115 2.55362 16.1155 2.56714 16.1232L8.48354 19.479C8.53035 19.5046 8.56949 19.5424 8.59685 19.5885C8.6242 19.6346 8.63877 19.6872 8.63903 19.7409V24.0816C8.63893 24.535 8.75712 24.9805 8.98174 25.3733C9.20636 25.7661 9.5295 26.0924 9.91871 26.3193L11.0553 26.9827C11.0705 26.9931 11.0883 26.9991 11.1066 27C11.125 27.0009 11.1432 26.9966 11.1593 26.9877C11.1754 26.9788 11.1888 26.9655 11.1979 26.9494C11.207 26.9333 11.2114 26.915 11.2108 26.8964V14.3888C11.2106 14.079 11.2535 13.7707 11.3383 13.473L8.81784 12.2576C8.69859 12.6506 8.63575 13.0589 8.63126 13.4698Z" fill="url(#paint0_linear_260_5799)"/>
<path d="M8.63126 13.4698V16.3113C8.63108 16.3269 8.6269 16.3421 8.61912 16.3555C8.61134 16.3689 8.60023 16.38 8.58689 16.3878C8.57355 16.3955 8.55844 16.3996 8.54305 16.3997C8.52765 16.3998 8.5125 16.3958 8.49909 16.3882L2.58269 13.0323C2.53609 13.0065 2.49713 12.9686 2.46981 12.9226C2.44249 12.8766 2.42779 12.8241 2.4272 12.7704V10.346C2.40792 10.0178 2.32321 9.69681 2.17814 9.40232C2.03307 9.10782 1.83062 8.84584 1.58289 8.63204C1.11642 8.26823 0.237902 7.75387 0.18348 7.71467C0.0839666 7.65037 0.0108861 7.70369 0.0108861 7.79935L6.90491e-07 11.1709V19.2328C-0.000310981 19.6363 0.104894 20.0327 0.305 20.3821C0.505105 20.7315 0.793035 21.0215 1.13974 21.2228L2.30125 21.8987C2.31489 21.9063 2.33025 21.9102 2.34583 21.91C2.3614 21.9098 2.37666 21.9056 2.39013 21.8977C2.40359 21.8898 2.4148 21.8785 2.42266 21.8649C2.43052 21.8514 2.43476 21.836 2.43498 21.8203V16.2016C2.43488 16.1859 2.43886 16.1705 2.44653 16.1569C2.4542 16.1433 2.46528 16.1319 2.47867 16.124C2.49205 16.116 2.50727 16.1118 2.5228 16.1116C2.53832 16.1115 2.55362 16.1155 2.56714 16.1232L8.48354 19.479C8.53035 19.5046 8.56949 19.5424 8.59685 19.5885C8.6242 19.6346 8.63877 19.6872 8.63903 19.7409V24.0816C8.63893 24.535 8.75712 24.9805 8.98174 25.3733C9.20636 25.7661 9.5295 26.0924 9.91871 26.3193L11.0553 26.9827C11.0705 26.9931 11.0883 26.9991 11.1066 27C11.125 27.0009 11.1432 26.9966 11.1593 26.9877C11.1754 26.9788 11.1888 26.9655 11.1979 26.9494C11.207 26.9333 11.2114 26.915 11.2108 26.8964V14.3888C11.2106 14.079 11.2535 13.7707 11.3383 13.473L8.81784 12.2576C8.69859 12.6506 8.63575 13.0589 8.63126 13.4698Z" fill="url(#paint1_radial_260_5799)"/>
<path d="M8.63126 13.4698V16.3113C8.63108 16.3269 8.6269 16.3421 8.61912 16.3555C8.61134 16.3689 8.60023 16.38 8.58689 16.3878C8.57355 16.3955 8.55844 16.3996 8.54305 16.3997C8.52765 16.3998 8.5125 16.3958 8.49909 16.3882L2.58269 13.0323C2.53609 13.0065 2.49713 12.9686 2.46981 12.9226C2.44249 12.8766 2.42779 12.8241 2.4272 12.7704V10.346C2.40792 10.0178 2.32321 9.69681 2.17814 9.40232C2.03307 9.10782 1.83062 8.84584 1.58289 8.63204C1.11642 8.26823 0.237902 7.75387 0.18348 7.71467C0.0839666 7.65037 0.0108861 7.70369 0.0108861 7.79935L6.90491e-07 11.1709V19.2328C-0.000310981 19.6363 0.104894 20.0327 0.305 20.3821C0.505105 20.7315 0.793035 21.0215 1.13974 21.2228L2.30125 21.8987C2.31489 21.9063 2.33025 21.9102 2.34583 21.91C2.3614 21.9098 2.37666 21.9056 2.39013 21.8977C2.40359 21.8898 2.4148 21.8785 2.42266 21.8649C2.43052 21.8514 2.43476 21.836 2.43498 21.8203V16.2016C2.43488 16.1859 2.43886 16.1705 2.44653 16.1569C2.4542 16.1433 2.46528 16.1319 2.47867 16.124C2.49205 16.116 2.50727 16.1118 2.5228 16.1116C2.53832 16.1115 2.55362 16.1155 2.56714 16.1232L8.48354 19.479C8.53035 19.5046 8.56949 19.5424 8.59685 19.5885C8.6242 19.6346 8.63877 19.6872 8.63903 19.7409V24.0816C8.63893 24.535 8.75712 24.9805 8.98174 25.3733C9.20636 25.7661 9.5295 26.0924 9.91871 26.3193L11.0553 26.9827C11.0705 26.9931 11.0883 26.9991 11.1066 27C11.125 27.0009 11.1432 26.9966 11.1593 26.9877C11.1754 26.9788 11.1888 26.9655 11.1979 26.9494C11.207 26.9333 11.2114 26.915 11.2108 26.8964V14.3888C11.2106 14.079 11.2535 13.7707 11.3383 13.473L8.81784 12.2576C8.69859 12.6506 8.63575 13.0589 8.63126 13.4698Z" fill="url(#paint2_linear_260_5799)"/>
<path d="M23.0842 9.4459C23.0842 8.79825 22.2383 7.61429 20.4408 8.7073L13.8247 12.5713C13.4207 12.7956 13.0856 13.1278 12.8561 13.5313C12.6265 13.9348 12.5114 14.3942 12.5233 14.8592V26.4981C12.5231 26.518 12.5282 26.5376 12.5379 26.5549C12.5477 26.5722 12.5618 26.5866 12.5788 26.5966C12.5959 26.6067 12.6153 26.612 12.635 26.612C12.6547 26.6121 12.6741 26.6069 12.6912 26.5969L14.1668 25.7375C14.4692 25.5619 14.7202 25.3089 14.8947 25.0041C15.0691 24.6993 15.1608 24.3535 15.1604 24.0016V21.0378L20.4471 17.9469V21.8783C20.4473 21.8966 20.4523 21.9145 20.4614 21.9303C20.4705 21.9461 20.4834 21.9593 20.4991 21.9686C20.5147 21.9779 20.5324 21.983 20.5505 21.9833C20.5686 21.9837 20.5866 21.9794 20.6026 21.9708L22.1061 21.0723C22.4029 20.8947 22.6488 20.6423 22.8194 20.3398C22.9901 20.0374 23.0797 19.6953 23.0795 19.3473L23.0842 9.4459ZM20.4408 14.867L15.1542 17.9579V15.6323C15.1543 15.4028 15.2142 15.1774 15.328 14.9786C15.4418 14.7799 15.6055 14.6148 15.8026 14.5001L19.4224 12.3799C20.1034 12.024 20.4408 12.4458 20.4408 12.9727V14.867Z" fill="url(#paint3_linear_260_5799)"/>
<path d="M1.76925 4.76799C1.55445 4.8925 1.376 5.07194 1.25192 5.28821C1.12784 5.50447 1.0625 5.74992 1.0625 5.99978C1.0625 6.24965 1.12784 6.49509 1.25192 6.71136C1.376 6.92762 1.55445 7.10706 1.76925 7.23158L4.96146 9.09298C5.38754 9.3389 5.86995 9.46827 6.36087 9.46827C6.85179 9.46827 7.33419 9.3389 7.76028 9.09298L15.3637 4.84013C15.4708 4.77778 15.5923 4.74495 15.7159 4.74495C15.8396 4.74495 15.961 4.77778 16.0681 4.84013L17.6417 5.69791C17.6776 5.71843 17.7074 5.74818 17.7282 5.78413C17.749 5.82008 17.7599 5.86095 17.7599 5.90256C17.7599 5.94417 17.749 5.98503 17.7282 6.02098C17.7074 6.05694 17.6776 6.08669 17.6417 6.1072L16.7974 6.59647C16.7974 6.59647 13.0656 8.56294 10.9727 9.76886C9.98379 10.3365 9.10682 11.1802 8.79584 12.2591L11.3163 13.4744C11.5755 12.6206 12.1537 11.9019 12.9288 11.4703L19.0426 8.07681L20.442 7.2551C20.6565 7.13048 20.8346 6.95109 20.9584 6.73498C21.0822 6.51888 21.1474 6.27369 21.1474 6.02409C21.1474 5.77449 21.0822 5.5293 20.9584 5.31319C20.8346 5.09709 20.6565 4.9177 20.442 4.79308L16.8518 2.76231C16.4249 2.51464 15.941 2.3843 15.4485 2.3843C14.956 2.3843 14.4721 2.51464 14.0452 2.76231L6.93152 6.67488C6.82412 6.73796 6.70206 6.7712 6.57778 6.7712C6.45349 6.7712 6.33143 6.73796 6.22404 6.67488L5.06097 5.95979C5.02508 5.93928 4.99522 5.90953 4.97445 5.87358C4.95368 5.83763 4.94273 5.79676 4.94273 5.75515C4.94273 5.71354 4.95368 5.67267 4.97445 5.63672C4.99522 5.60077 5.02508 5.57102 5.06097 5.5505L6.08565 4.95774L11.9383 1.61755H11.9492C12.4923 1.341 13.0809 1.16669 13.686 1.10319C13.7025 1.10134 13.718 1.09441 13.7305 1.08334C13.7429 1.07227 13.7517 1.05761 13.7556 1.04134C13.7595 1.02507 13.7584 1.00798 13.7523 0.992394C13.7463 0.976808 13.7356 0.963479 13.7218 0.954219L13.4294 0.76604C11.9321 -0.204653 10.3507 -0.256402 8.80517 0.631178L2.79548 4.17209L1.76925 4.76799Z" fill="url(#paint4_linear_260_5799)"/>
<path d="M1.76925 4.76799C1.55445 4.8925 1.376 5.07194 1.25192 5.28821C1.12784 5.50447 1.0625 5.74992 1.0625 5.99978C1.0625 6.24965 1.12784 6.49509 1.25192 6.71136C1.376 6.92762 1.55445 7.10706 1.76925 7.23158L4.96146 9.09298C5.38754 9.3389 5.86995 9.46827 6.36087 9.46827C6.85179 9.46827 7.33419 9.3389 7.76028 9.09298L15.3637 4.84013C15.4708 4.77778 15.5923 4.74495 15.7159 4.74495C15.8396 4.74495 15.961 4.77778 16.0681 4.84013L17.6417 5.69791C17.6776 5.71843 17.7074 5.74818 17.7282 5.78413C17.749 5.82008 17.7599 5.86095 17.7599 5.90256C17.7599 5.94417 17.749 5.98503 17.7282 6.02098C17.7074 6.05694 17.6776 6.08669 17.6417 6.1072L16.7974 6.59647C16.7974 6.59647 13.0656 8.56294 10.9727 9.76886C9.98379 10.3365 9.10682 11.1802 8.79584 12.2591L11.3163 13.4744C11.5755 12.6206 12.1537 11.9019 12.9288 11.4703L19.0426 8.07681L20.442 7.2551C20.6565 7.13048 20.8346 6.95109 20.9584 6.73498C21.0822 6.51888 21.1474 6.27369 21.1474 6.02409C21.1474 5.77449 21.0822 5.5293 20.9584 5.31319C20.8346 5.09709 20.6565 4.9177 20.442 4.79308L16.8518 2.76231C16.4249 2.51464 15.941 2.3843 15.4485 2.3843C14.956 2.3843 14.4721 2.51464 14.0452 2.76231L6.93152 6.67488C6.82412 6.73796 6.70206 6.7712 6.57778 6.7712C6.45349 6.7712 6.33143 6.73796 6.22404 6.67488L5.06097 5.95979C5.02508 5.93928 4.99522 5.90953 4.97445 5.87358C4.95368 5.83763 4.94273 5.79676 4.94273 5.75515C4.94273 5.71354 4.95368 5.67267 4.97445 5.63672C4.99522 5.60077 5.02508 5.57102 5.06097 5.5505L6.08565 4.95774L11.9383 1.61755H11.9492C12.4923 1.341 13.0809 1.16669 13.686 1.10319C13.7025 1.10134 13.718 1.09441 13.7305 1.08334C13.7429 1.07227 13.7517 1.05761 13.7556 1.04134C13.7595 1.02507 13.7584 1.00798 13.7523 0.992394C13.7463 0.976808 13.7356 0.963479 13.7218 0.954219L13.4294 0.76604C11.9321 -0.204653 10.3507 -0.256402 8.80517 0.631178L2.79548 4.17209L1.76925 4.76799Z" fill="url(#paint5_radial_260_5799)"/>
</g>
<rect x="29" y="1" width="68" height="18" fill="white"/>
<path d="M37.286 12.004C37.286 11.304 36.796 10.898 35.998 10.898H34.262V13.068H36.026C36.824 13.068 37.286 12.704 37.286 12.004ZM37.048 8.126C37.048 7.454 36.614 7.09 35.83 7.09H34.262V9.148H35.83C36.614 9.148 37.048 8.798 37.048 8.126ZM39.708 12.326C39.708 13.95 38.518 15 36.446 15H31.868V5.172H36.292C38.294 5.172 39.484 6.166 39.484 7.72C39.484 8.91 38.77 9.68 37.818 9.96C38.966 10.198 39.708 11.206 39.708 12.326ZM41.0965 15V5.172H43.4905V15H41.0965ZM49.8174 5.06C52.1694 5.06 53.8774 6.264 54.3954 8.28H51.7494C51.3854 7.622 50.7134 7.272 49.8174 7.272C48.2774 7.272 47.2554 8.364 47.2554 10.072C47.2554 11.892 48.2914 12.956 50.0134 12.956C51.2034 12.956 52.0294 12.326 52.3934 11.22H49.3554V9.456H54.5634V11.682C54.0594 13.376 52.4214 15.07 49.8314 15.07C46.8914 15.07 44.8194 13.012 44.8194 10.072C44.8194 7.132 46.8774 5.06 49.8174 5.06Z" fill="#757575"/>
<path d="M59.5715 5.172C62.7075 5.172 64.7235 7.16 64.7235 10.086C64.7235 12.998 62.7075 15 59.5715 15H55.8895V5.172H59.5715ZM58.2835 12.928H59.4175C61.2235 12.928 62.2875 11.892 62.2875 10.086C62.2875 8.28 61.2235 7.216 59.4175 7.216H58.2835V12.928ZM72.7674 15L72.1794 13.264H68.5114L67.9234 15H65.4174L68.9734 5.172H71.7454L75.3014 15H72.7674ZM71.5634 11.416L70.3454 7.818L69.1414 11.416H71.5634ZM83.5236 12.074C83.5236 13.726 82.2356 15.098 79.9396 15.098C77.8256 15.098 76.1736 14.048 76.1036 12.06H78.6516C78.7216 12.816 79.1976 13.18 79.8696 13.18C80.5696 13.18 81.0176 12.83 81.0176 12.256C81.0176 10.436 76.1036 11.416 76.1316 7.93C76.1316 6.068 77.6576 5.032 79.7156 5.032C81.8576 5.032 83.2996 6.096 83.3976 7.972H80.8076C80.7656 7.342 80.3176 6.964 79.6736 6.95C79.0996 6.936 78.6656 7.23 78.6656 7.846C78.6656 9.554 83.5236 8.784 83.5236 12.074ZM91.1149 15V10.954H87.3909V15H84.9969V5.172H87.3909V9.022H91.1149V5.172H93.5089V15H91.1149ZM100.655 12.004C100.655 11.304 100.165 10.898 99.3671 10.898H97.6311V13.068H99.3951C100.193 13.068 100.655 12.704 100.655 12.004ZM100.417 8.126C100.417 7.454 99.9831 7.09 99.1991 7.09H97.6311V9.148H99.1991C99.9831 9.148 100.417 8.798 100.417 8.126ZM103.077 12.326C103.077 13.95 101.887 15 99.8151 15H95.2371V5.172H99.6611C101.663 5.172 102.853 6.166 102.853 7.72C102.853 8.91 102.139 9.68 101.187 9.96C102.335 10.198 103.077 11.206 103.077 12.326ZM114.14 10.058C114.14 13.012 111.9 15.098 109.114 15.098C106.328 15.098 104.06 13.012 104.06 10.058C104.06 7.104 106.328 5.032 109.114 5.032C111.914 5.032 114.14 7.104 114.14 10.058ZM106.51 10.058C106.51 11.78 107.518 12.914 109.114 12.914C110.682 12.914 111.704 11.78 111.704 10.058C111.704 8.308 110.682 7.202 109.114 7.202C107.518 7.202 106.51 8.308 106.51 10.058ZM122.178 15L121.59 13.264H117.922L117.334 15H114.828L118.384 5.172H121.156L124.712 15H122.178ZM120.974 11.416L119.756 7.818L118.552 11.416H120.974ZM130.988 8.364C130.988 7.636 130.568 7.16 129.672 7.16H128.188V9.596H129.672C130.568 9.596 130.988 9.134 130.988 8.364ZM125.794 5.172H129.812C132.22 5.172 133.424 6.558 133.424 8.266C133.424 9.498 132.752 10.66 131.24 11.108L133.508 15H130.806L128.762 11.29H128.188V15H125.794V5.172ZM138.609 5.172C141.745 5.172 143.761 7.16 143.761 10.086C143.761 12.998 141.745 15 138.609 15H134.927V5.172H138.609ZM137.321 12.928H138.455C140.261 12.928 141.325 11.892 141.325 10.086C141.325 8.28 140.261 7.216 138.455 7.216H137.321V12.928Z" fill="#4B4B4B"/>
<defs>
<linearGradient id="paint0_linear_260_5799" x1="2.81748" y1="22.2029" x2="8.77019" y2="11.9815" gradientUnits="userSpaceOnUse">
<stop stop-color="#FF1D25"/>
<stop offset="0.45" stop-color="#FF1F25"/>
<stop offset="0.64" stop-color="#FD2625"/>
<stop offset="0.78" stop-color="#FA3325"/>
<stop offset="0.9" stop-color="#F64424"/>
<stop offset="1" stop-color="#F15A24"/>
</linearGradient>
<radialGradient id="paint1_radial_260_5799" cx="0" cy="0" r="1" gradientUnits="userSpaceOnUse" gradientTransform="translate(10.0913 12.8771) scale(4.61495 4.65431)">
<stop offset="0.1" stop-color="#F15A24"/>
<stop offset="1" stop-color="#F15A24" stop-opacity="0"/>
</radialGradient>
<linearGradient id="paint2_linear_260_5799" x1="-0.00466401" y1="17.3416" x2="11.3243" y2="17.3416" gradientUnits="userSpaceOnUse">
<stop stop-color="#ED1C24"/>
<stop offset="1" stop-color="#FF1D25" stop-opacity="0"/>
</linearGradient>
<linearGradient id="paint3_linear_260_5799" x1="12.3787" y1="26.4777" x2="22.7755" y2="8.62068" gradientUnits="userSpaceOnUse">
<stop stop-color="#0549CF"/>
<stop offset="0.18" stop-color="#0B52D3"/>
<stop offset="0.47" stop-color="#1A6CDD"/>
<stop offset="0.84" stop-color="#3395ED"/>
<stop offset="1" stop-color="#3FA9F5"/>
</linearGradient>
<linearGradient id="paint4_linear_260_5799" x1="11.108" y1="-0.00235989" x2="11.108" y2="13.4697" gradientUnits="userSpaceOnUse">
<stop stop-color="#FFD800"/>
<stop offset="0.05" stop-color="#FFC907"/>
<stop offset="0.15" stop-color="#FFB111"/>
<stop offset="0.25" stop-color="#FFA018"/>
<stop offset="0.36" stop-color="#FF961D"/>
<stop offset="0.5" stop-color="#FF931E"/>
<stop offset="0.65" stop-color="#FE901E"/>
<stop offset="0.77" stop-color="#FC861F"/>
<stop offset="0.88" stop-color="#F87521"/>
<stop offset="0.99" stop-color="#F25D24"/>
<stop offset="1" stop-color="#F15A24"/>
</linearGradient>
<radialGradient id="paint5_radial_260_5799" cx="0" cy="0" r="1" gradientUnits="userSpaceOnUse" gradientTransform="translate(4288.6 3120.54) scale(558.161 374.454)">
<stop offset="0.1" stop-color="#F15A24"/>
<stop offset="1" stop-color="#F15A24" stop-opacity="0"/>
</radialGradient>
<clipPath id="clip0_260_5799">
<rect width="85" height="27" fill="white"/>
</clipPath>
</defs>
</svg>
