<svg width="41" height="41" viewBox="0 0 41 41" fill="none" xmlns="http://www.w3.org/2000/svg">
<rect x="0.44043" y="0.465332" width="40.3464" height="40.3464" rx="20.1732" fill="#93C5FD"/>
<path d="M30.2743 22.8671C30.2996 22.9701 30.3044 23.077 30.2884 23.1818C30.2724 23.2865 30.2359 23.3871 30.181 23.4778C30.1261 23.5685 30.0539 23.6475 29.9685 23.7102C29.8831 23.773 29.7861 23.8183 29.6832 23.8436L27.1977 24.4488L27.8493 26.8809C27.8768 26.9833 27.8838 27.0901 27.8699 27.1952C27.8561 27.3003 27.8217 27.4017 27.7687 27.4935C27.7156 27.5853 27.645 27.6657 27.5609 27.7302C27.4768 27.7947 27.3808 27.842 27.2784 27.8694C27.2104 27.889 27.1402 27.8999 27.0695 27.9017C26.892 27.9016 26.7195 27.8428 26.5787 27.7347C26.4379 27.6266 26.3367 27.475 26.2908 27.3035L25.5121 24.3984L21.4207 22.037V26.7608L23.6056 28.9447C23.6805 29.0197 23.74 29.1087 23.7806 29.2067C23.8212 29.3047 23.8421 29.4097 23.8421 29.5157C23.8421 29.6217 23.8212 29.7267 23.7806 29.8247C23.74 29.9226 23.6805 30.0117 23.6056 30.0866C23.5306 30.1616 23.4416 30.2211 23.3436 30.2617C23.2457 30.3022 23.1407 30.3231 23.0346 30.3231C22.9286 30.3231 22.8236 30.3022 22.7256 30.2617C22.6277 30.2211 22.5387 30.1616 22.4637 30.0866L20.6137 28.2356L18.7637 30.0866C18.6887 30.1616 18.5997 30.2211 18.5017 30.2617C18.4037 30.3022 18.2988 30.3231 18.1927 30.3231C18.0867 30.3231 17.9817 30.3022 17.8837 30.2617C17.7858 30.2211 17.6968 30.1616 17.6218 30.0866C17.5468 30.0117 17.4873 29.9226 17.4467 29.8247C17.4062 29.7267 17.3853 29.6217 17.3853 29.5157C17.3853 29.4097 17.4062 29.3047 17.4467 29.2067C17.4873 29.1087 17.5468 29.0197 17.6218 28.9447L19.8067 26.7608V22.037L15.7163 24.3984L14.9375 27.3035C14.8916 27.4752 14.7902 27.6269 14.6492 27.735C14.5082 27.8432 14.3355 27.9018 14.1578 27.9017C14.087 27.9016 14.0165 27.8924 13.948 27.8745C13.8456 27.8471 13.7495 27.7998 13.6654 27.7353C13.5813 27.6708 13.5107 27.5903 13.4577 27.4985C13.4047 27.4067 13.3703 27.3053 13.3564 27.2002C13.3426 27.0951 13.3496 26.9883 13.377 26.8859L14.0287 24.4539L11.5432 23.8486C11.3353 23.7975 11.1562 23.666 11.0454 23.4828C10.9345 23.2997 10.9009 23.0801 10.952 22.8722C11.0031 22.6643 11.1347 22.4853 11.3178 22.3744C11.501 22.2635 11.7206 22.23 11.9285 22.2811L14.8992 23.0104L18.9997 20.6389L14.9002 18.2724L11.9295 19.0017C11.8665 19.0173 11.8018 19.0251 11.7368 19.0249C11.5395 19.025 11.349 18.9529 11.2013 18.822C11.0536 18.6912 10.9589 18.5108 10.9352 18.3149C10.9114 18.119 10.9603 17.9213 11.0725 17.759C11.1847 17.5967 11.3525 17.4811 11.5442 17.4341L14.0297 16.8289L13.378 14.3918C13.3227 14.185 13.3517 13.9647 13.4588 13.7793C13.5659 13.5939 13.7422 13.4586 13.949 13.4032C14.1558 13.3478 14.3761 13.3769 14.5615 13.484C14.7469 13.591 14.8822 13.7674 14.9375 13.9742L15.7163 16.8793L19.8067 19.2408V14.5169L17.6218 12.333C17.4704 12.1815 17.3853 11.9762 17.3853 11.762C17.3853 11.656 17.4062 11.551 17.4467 11.453C17.4873 11.3551 17.5468 11.2661 17.6218 11.1911C17.6968 11.1161 17.7858 11.0566 17.8837 11.0161C17.9817 10.9755 18.0867 10.9546 18.1927 10.9546C18.4069 10.9546 18.6122 11.0397 18.7637 11.1911L20.6137 13.0421L22.4637 11.1911C22.6151 11.0397 22.8205 10.9546 23.0346 10.9546C23.2488 10.9546 23.4541 11.0397 23.6056 11.1911C23.757 11.3425 23.8421 11.5479 23.8421 11.762C23.8421 11.9762 23.757 12.1815 23.6056 12.333L21.4207 14.5169V19.2408L25.5111 16.8793L26.2898 13.9742C26.3452 13.7674 26.4804 13.591 26.6658 13.484C26.8512 13.3769 27.0716 13.3478 27.2784 13.4032C27.4852 13.4586 27.6615 13.5939 27.7686 13.7793C27.8756 13.9647 27.9047 14.185 27.8493 14.3918L27.1977 16.8238L29.6832 17.4291C29.8802 17.4711 30.0543 17.5854 30.1714 17.7493C30.2884 17.9132 30.3399 18.115 30.3158 18.315C30.2917 18.515 30.1936 18.6987 30.0409 18.8301C29.8882 18.9614 29.6918 19.0309 29.4905 19.0249C29.4256 19.0251 29.3609 19.0173 29.2978 19.0017L26.3271 18.2724L22.2276 20.6389L26.3271 23.0053L29.2978 22.276C29.4008 22.2507 29.5077 22.2459 29.6125 22.2619C29.7172 22.2779 29.8178 22.3144 29.9085 22.3693C29.9992 22.4242 30.0782 22.4964 30.1409 22.5818C30.2037 22.6673 30.249 22.7642 30.2743 22.8671Z" fill="#1D4ED8"/>
</svg>
