<svg width="41" height="41" viewBox="0 0 41 41" fill="none" xmlns="http://www.w3.org/2000/svg">
<g clip-path="url(#clip0_2017_10946)">
<path d="M4.34375 9.01123H7.69019H34.4617" stroke="#F04438" stroke-width="4.17635" stroke-linecap="round" stroke-linejoin="round"/>
<path d="M12.7101 9.01025V5.66382C12.7101 4.77629 13.0627 3.92511 13.6902 3.29753C14.3178 2.66995 15.169 2.31738 16.0565 2.31738H22.7494C23.6369 2.31738 24.4881 2.66995 25.1157 3.29753C25.7433 3.92511 26.0958 4.77629 26.0958 5.66382V9.01025M31.1155 9.01025V32.4353C31.1155 33.3228 30.7629 34.174 30.1353 34.8016C29.5078 35.4292 28.6566 35.7817 27.769 35.7817H11.0369C10.1493 35.7817 9.29816 35.4292 8.67058 34.8016C8.043 34.174 7.69043 33.3228 7.69043 32.4353V9.01025H31.1155Z" stroke="#F04438" stroke-width="4.17635" stroke-linecap="round" stroke-linejoin="round"/>
<path d="M16.0547 17.377V27.4163" stroke="#F04438" stroke-width="4.17635" stroke-linecap="round" stroke-linejoin="round"/>
<path d="M22.749 17.377V27.4163" stroke="#F04438" stroke-width="4.17635" stroke-linecap="round" stroke-linejoin="round"/>
</g>
<defs>
<clipPath id="clip0_2017_10946">
<rect width="40.1572" height="40.1572" fill="white" transform="translate(0.842773 0.491211)"/>
</clipPath>
</defs>
</svg>
