<svg width="40" height="40" viewBox="0 0 40 40" fill="none" xmlns="http://www.w3.org/2000/svg">
<path fill-rule="evenodd" clip-rule="evenodd" d="M28.8618 1.91013C30.0857 0.687072 31.7451 0 33.4754 0C35.2063 0 36.8664 0.687619 38.0904 1.91159C39.3143 3.13556 40.0019 4.79563 40.0019 6.52658C40.0019 8.257 39.3148 9.91657 38.0915 11.1404L38.0904 11.1416L35.4408 13.8006C35.3653 13.9135 35.2776 14.0208 35.1779 14.1206C35.08 14.2185 34.9748 14.3047 34.8641 14.3793L20.4403 28.8548C20.0452 29.2513 19.5086 29.4741 18.949 29.4741H12.6331C11.4704 29.4741 10.5279 28.5315 10.5279 27.3688V21.053C10.5279 20.4933 10.7507 19.9567 11.1471 19.5617L25.6404 5.12012C25.7116 5.01715 25.7931 4.91912 25.8847 4.82745C25.9783 4.73392 26.0784 4.65104 26.1836 4.57879L28.8604 1.91159L28.8618 1.91013ZM27.3954 9.31539L14.7384 21.9272V25.2635H18.0747L30.6866 12.6066L27.3954 9.31539ZM33.6586 9.62395L30.378 6.3434L31.835 4.89156L31.8377 4.8889C32.272 4.45456 32.8611 4.21055 33.4754 4.21055C34.0896 4.21055 34.6787 4.45456 35.113 4.8889C35.5474 5.32324 35.7914 5.91233 35.7914 6.52658C35.7914 7.14083 35.5474 7.72992 35.113 8.16426L35.1104 8.16692L33.6586 9.62395ZM1.84986 10.2731C3.03431 9.08865 4.64077 8.42323 6.31583 8.42323H8.42111C9.58382 8.42323 10.5264 9.3658 10.5264 10.5285C10.5264 11.6912 9.58382 12.6338 8.42111 12.6338H6.31583C5.75748 12.6338 5.22199 12.8556 4.82717 13.2504C4.43236 13.6452 4.21055 14.1807 4.21055 14.7391V33.6866C4.21055 34.2449 4.43236 34.7804 4.82717 35.1752C5.22199 35.57 5.75748 35.7918 6.31583 35.7918H25.2633C25.8217 35.7918 26.3572 35.57 26.752 35.1752C27.1468 34.7804 27.3686 34.2449 27.3686 33.6866V31.5813C27.3686 30.4186 28.3112 29.476 29.4739 29.476C30.6366 29.476 31.5792 30.4186 31.5792 31.5813V33.6866C31.5792 35.3616 30.9137 36.9681 29.7293 38.1525C28.5448 39.337 26.9384 40.0024 25.2633 40.0024H6.31583C4.64077 40.0024 3.03431 39.337 1.84986 38.1525C0.665416 36.9681 0 35.3616 0 33.6866V14.7391C0 13.064 0.665416 11.4575 1.84986 10.2731Z" fill="#0549CF"/>
</svg>
