<svg width="17" height="15" viewBox="0 0 17 15" fill="none" xmlns="http://www.w3.org/2000/svg">
<path fill-rule="evenodd" clip-rule="evenodd" d="M12.6056 0.914993C11.7811 0.825673 10.742 0.825678 9.41637 0.825684H7.90741C6.58176 0.825678 5.54263 0.825673 4.71822 0.914993C3.87691 1.00614 3.19524 1.19549 2.61322 1.61835C2.26087 1.87435 1.95101 2.18421 1.69501 2.53656C1.5783 2.69719 1.47836 2.86685 1.39309 3.04742C1.13194 3.60038 1.01546 4.24159 0.958692 5.00623C0.90234 5.76525 0.902342 6.69568 0.902344 7.84289V7.89607C0.902338 9.22172 0.902333 10.2608 0.991653 11.0853C1.0828 11.9266 1.27215 12.6082 1.69501 13.1903C1.95101 13.5426 2.26087 13.8525 2.61322 14.1085C3.19524 14.5313 3.87691 14.7207 4.71822 14.8118C5.54262 14.9011 6.58173 14.9011 7.90734 14.9011H9.41639C10.742 14.9011 11.7812 14.9011 12.6056 14.8118C13.4469 14.7207 14.1285 14.5313 14.7106 14.1085C15.0629 13.8525 15.3728 13.5426 15.6288 13.1903C16.0516 12.6082 16.241 11.9266 16.3321 11.0853C16.4214 10.2609 16.4214 9.22175 16.4214 7.89614V7.84241C16.4214 6.68737 16.4214 5.75199 16.3639 4.98988C16.3058 4.22188 16.1867 3.57854 15.9195 3.02395C15.8367 2.85207 15.7404 2.69017 15.6288 2.53656C15.3728 2.18421 15.0629 1.87435 14.7106 1.61835C14.1285 1.19549 13.4469 1.00614 12.6056 0.914993ZM3.24963 2.4943C3.61632 2.22788 4.08566 2.07259 4.83484 1.99142C5.59416 1.90915 6.5747 1.90841 7.94007 1.90841H9.38371C10.7491 1.90841 11.7296 1.90915 12.4889 1.99142C13.2381 2.07259 13.7075 2.22788 14.0741 2.4943C14.3345 2.68342 14.5634 2.91232 14.7526 3.1726L13.3831 4.54204C12.1693 5.75589 11.2966 6.62696 10.5438 7.20126C9.80362 7.76604 9.2434 7.99257 8.66189 7.99257C8.08038 7.99257 7.52016 7.76604 6.77993 7.20126C6.02721 6.62696 5.15452 5.75589 3.94067 4.54204L2.57123 3.1726C2.76039 2.91232 2.98932 2.68342 3.24963 2.4943ZM15.1852 4.27119C15.2288 4.50234 15.2611 4.76602 15.2842 5.07145C15.3384 5.78813 15.3387 6.68311 15.3387 7.86341C15.3387 9.22878 15.338 10.2093 15.2557 10.9686C15.1745 11.7178 15.0192 12.1872 14.7528 12.5538C14.5636 12.8143 14.3346 13.0433 14.0741 13.2325C13.7075 13.4989 13.2381 13.6542 12.4889 13.7354C11.7296 13.8177 10.7491 13.8184 9.38371 13.8184H7.94007C6.5747 13.8184 5.59416 13.8177 4.83484 13.7354C4.08566 13.6542 3.61632 13.4989 3.24963 13.2325C2.9892 13.0433 2.76017 12.8143 2.57096 12.5538C2.30454 12.1872 2.14925 11.7178 2.06808 10.9686C1.98581 10.2093 1.98507 9.22878 1.98507 7.86341C1.98507 6.6915 1.98541 5.80077 2.03845 5.08639C2.06159 4.77464 2.09429 4.50613 2.13861 4.27119L3.20435 5.33693C4.38255 6.51514 5.30588 7.43849 6.12317 8.06205C6.95971 8.70031 7.74846 9.07529 8.66189 9.07529C9.57532 9.07529 10.3641 8.70031 11.2006 8.06205C12.0179 7.43849 12.9412 6.51515 14.1194 5.33694L15.1852 4.27119Z" fill="#A6A6A6"/>
</svg>
