<svg width="16" height="16" viewBox="0 0 16 16" fill="none" xmlns="http://www.w3.org/2000/svg">
<g clip-path="url(#clip0_260_5780)">
<path d="M4.19578 3.31053C5.97366 2.01883 6.86259 1.37298 7.8778 1.33574C7.95924 1.33275 8.04077 1.33275 8.1222 1.33574C9.13741 1.37298 10.0264 2.01883 11.8042 3.31053C13.5821 4.60224 14.471 5.24809 14.8202 6.2021C14.8482 6.27863 14.8734 6.35616 14.8957 6.43454C15.174 7.41157 14.8345 8.45658 14.1554 10.5466L13.008 14.0778C12.8257 14.6389 12.3029 15.0187 11.7129 15.0187C10.9608 15.0187 10.3511 14.4091 10.3511 13.657V11.8244C10.3511 11.1187 9.77907 10.5466 9.07339 10.5466H6.92662C6.22093 10.5466 5.64886 11.1187 5.64886 11.8244V13.657C5.64886 14.4091 5.03918 15.0187 4.2871 15.0187C3.69715 15.0187 3.17429 14.6389 2.99199 14.0778L1.84464 10.5466C1.16555 8.45658 0.826004 7.41157 1.1043 6.43454C1.12663 6.35616 1.15182 6.27863 1.17982 6.2021C1.52896 5.24809 2.4179 4.60224 4.19578 3.31053Z" stroke="#021A48" stroke-width="1.5"/>
</g>
<defs>
<clipPath id="clip0_260_5780">
<rect width="16" height="16" fill="white"/>
</clipPath>
</defs>
</svg>
