<svg width="41" height="41" viewBox="0 0 41 41" fill="none" xmlns="http://www.w3.org/2000/svg">
<rect x="0.21582" y="0.465332" width="40.3464" height="40.3464" rx="20.1732" fill="#FCA5A5"/>
<path d="M21.941 9.52727C21.8415 9.44456 21.7236 9.38699 21.5972 9.35939C21.4708 9.3318 21.3396 9.33499 21.2147 9.36872C21.0898 9.40244 20.9748 9.4657 20.8795 9.55316C20.7842 9.64061 20.7113 9.74971 20.6669 9.87125L18.4477 15.965L16.0106 13.6036C15.9288 13.5242 15.831 13.463 15.7239 13.4242C15.6167 13.3853 15.5025 13.3696 15.3887 13.3781C15.275 13.3866 15.1644 13.419 15.0642 13.4734C14.964 13.5277 14.8764 13.6027 14.8072 13.6933C12.6223 16.5561 11.5127 19.436 11.5127 22.2524C11.5127 24.6067 12.4479 26.8646 14.1127 28.5293C15.7774 30.194 18.0352 31.1292 20.3895 31.1292C22.7438 31.1292 25.0017 30.194 26.6664 28.5293C28.3311 26.8646 29.2664 24.6067 29.2664 22.2524C29.2664 16.2555 24.143 11.3581 21.941 9.52727Z" fill="#DC2626"/>
</svg>
