<svg width="41" height="41" viewBox="0 0 41 41" fill="none" xmlns="http://www.w3.org/2000/svg">
<rect x="0.103516" y="0.465332" width="40.3464" height="40.3464" rx="20.1732" fill="#A78BFA"/>
<path d="M29.1538 10.9554V27.0939C29.1538 27.3079 29.0688 27.5132 28.9174 27.6645C28.7661 27.8158 28.5609 27.9009 28.3469 27.9009H14.6291C14.2011 27.9009 13.7906 28.0709 13.4879 28.3736C13.1853 28.6762 13.0152 29.0867 13.0152 29.5147H26.733C26.947 29.5147 27.1523 29.5997 27.3036 29.7511C27.4549 29.9024 27.5399 30.1076 27.5399 30.3216C27.5399 30.5357 27.4549 30.7409 27.3036 30.8922C27.1523 31.0436 26.947 31.1286 26.733 31.1286H12.2083C11.9943 31.1286 11.789 31.0436 11.6377 30.8922C11.4864 30.7409 11.4014 30.5357 11.4014 30.3216V13.3762C11.4014 12.5201 11.7414 11.6991 12.3467 11.0938C12.9521 10.4885 13.773 10.1484 14.6291 10.1484H28.3469C28.5609 10.1484 28.7661 10.2335 28.9174 10.3848C29.0688 10.5361 29.1538 10.7414 29.1538 10.9554Z" fill="#4C1D95"/>
</svg>
