<svg width="14" height="14" viewBox="0 0 14 14" fill="none" xmlns="http://www.w3.org/2000/svg">
<g clip-path="url(#clip0_260_5795)">
<path d="M1.46607 0.581544C1.46715 0.339922 1.66389 0.144923 1.90552 0.146001C2.14714 0.147079 2.34214 0.343826 2.34106 0.585448L2.33589 1.74378C2.33379 2.21594 2.33303 2.53309 2.35924 2.77304L2.36023 2.78195C2.62648 2.48922 2.92006 2.22181 3.23696 1.98372C4.28516 1.19618 5.58886 0.72933 7.00033 0.72933C10.4636 0.72933 13.2712 3.53688 13.2712 7.00016C13.2712 10.4634 10.4636 13.271 7.00033 13.271C3.53704 13.271 0.729492 10.4634 0.729492 7.00016C0.729492 6.75854 0.925368 6.56266 1.16699 6.56266C1.40862 6.56266 1.60449 6.75854 1.60449 7.00016C1.60449 9.9802 4.02029 12.396 7.00033 12.396C9.98036 12.396 12.3962 9.9802 12.3962 7.00016C12.3962 4.02013 9.98036 1.60433 7.00033 1.60433C5.78487 1.60433 4.66442 2.00569 3.76255 2.68327C3.47148 2.90196 3.20322 3.14941 2.96201 3.42138C2.97854 3.42359 2.99581 3.42568 3.01385 3.42765C3.2538 3.45386 3.57095 3.45311 4.04311 3.451L5.20144 3.44583C5.44307 3.44475 5.63981 3.63975 5.64089 3.88138C5.64197 4.123 5.44697 4.31975 5.20535 4.32082L4.02174 4.3261C3.5814 4.32808 3.21414 4.32973 2.91886 4.29748C2.60915 4.26366 2.32371 4.18807 2.07574 3.99617C2.0362 3.96557 1.99816 3.93315 1.96174 3.89904C1.89988 3.84112 1.84269 3.7783 1.79072 3.71115C1.59883 3.46318 1.52323 3.17774 1.48941 2.86803C1.45716 2.57276 1.45881 2.20551 1.46079 1.76517L1.46607 0.581544Z" fill="#021A48"/>
</g>
<defs>
<clipPath id="clip0_260_5795">
<rect width="14" height="14" fill="white"/>
</clipPath>
</defs>
</svg>
