<svg width="16" height="16" viewBox="0 0 16 16" fill="none" xmlns="http://www.w3.org/2000/svg">
<path d="M5.94613 1.5C5.37812 1.49996 5.03212 1.49993 4.73367 1.5472C3.09342 1.80699 1.80699 3.09342 1.5472 4.73367C1.49993 5.03212 1.49996 5.37811 1.5 5.94613L1.5 10.0539C1.49996 10.6219 1.49993 10.9679 1.5472 11.2663C1.80699 12.9066 3.09342 14.193 4.73367 14.4528C5.03213 14.5001 5.37812 14.5001 5.94614 14.5L6.66667 14.5C7.52906 14.5 8.32624 14.2146 8.96696 13.7334C9.18776 13.5675 9.2323 13.2541 9.06646 13.0333C8.90061 12.8125 8.58718 12.768 8.36638 12.9338C7.89289 13.2895 7.30509 13.5 6.66667 13.5H6C5.36156 13.5 5.10055 13.4985 4.89011 13.4651C3.67775 13.2731 2.72691 12.3223 2.53489 11.1099C2.50156 10.8995 2.50001 10.6384 2.50001 10L2.50001 6.00001C2.50001 5.36156 2.50156 5.10055 2.53489 4.89011C2.72691 3.67775 3.67775 2.72691 4.89011 2.53489C5.10055 2.50156 5.36156 2.50001 6.00001 2.50001H6.66667C7.30509 2.50001 7.89289 2.71056 8.36638 3.06621C8.58718 3.23206 8.90061 3.18751 9.06646 2.96672C9.2323 2.74592 9.18776 2.43249 8.96696 2.26665C8.32624 1.78538 7.52906 1.50001 6.66667 1.50001L5.94613 1.5Z" fill="#DC2626"/>
<path d="M11.644 4.94155C11.4276 4.76998 11.1131 4.80631 10.9415 5.02269C10.77 5.23907 10.8063 5.55356 11.0227 5.72513L12.198 6.65703C12.6674 7.02917 12.9887 7.2849 13.207 7.50001L4.66667 7.50001C4.39053 7.50001 4.16667 7.72386 4.16667 8.00001C4.16667 8.27615 4.39053 8.50001 4.66667 8.50001L13.207 8.50001C12.9887 8.71511 12.6674 8.97084 12.198 9.34299L11.0227 10.2749C10.8063 10.4464 10.77 10.7609 10.9415 10.9773C11.1131 11.1937 11.4276 11.23 11.644 11.0585L12.8432 10.1076C13.2915 9.75218 13.6614 9.45886 13.925 9.19633C14.1954 8.92692 14.4196 8.6279 14.4805 8.24579C14.4935 8.16438 14.5 8.08226 14.5 8.00001C14.5 7.91775 14.4935 7.83563 14.4805 7.75422C14.4196 7.37211 14.1954 7.07309 13.925 6.80368C13.6614 6.54115 13.2915 6.24784 12.8432 5.89238L11.644 4.94155Z" fill="#DC2626"/>
</svg>
