<svg width="40" height="40" viewBox="0 0 40 40" fill="none" xmlns="http://www.w3.org/2000/svg">
<g clip-path="url(#clip0_2019_10951)">
<path d="M16.1533 0.239746C11.5118 0.239746 7.78719 3.42744 7.78719 9.51975C7.78719 13.4982 9.37181 17.5505 11.778 20.0474C12.7164 22.5444 11.0241 23.4736 10.6733 23.6059C5.81642 25.3874 0.142578 28.6182 0.142578 31.8274V33.0274C0.142578 37.4013 8.47181 38.4121 16.1995 38.4121C17.8838 38.4085 19.5674 38.3449 21.2472 38.2213C19.1439 36.0013 17.974 33.0579 17.9795 29.9997C17.9795 27.2444 18.918 24.7197 20.478 22.6921C20.2472 22.1505 20.1549 21.2967 20.5749 19.9997C22.9672 17.4997 24.518 13.4828 24.518 9.51821C24.518 3.42744 20.7887 0.241285 16.1518 0.241285L16.1533 0.239746ZM29.9995 20.2874C27.4238 20.2874 24.9537 21.3106 23.1324 23.1319C21.3111 24.9531 20.288 27.4233 20.288 29.999C20.288 32.5746 21.3111 35.0448 23.1324 36.8661C24.9537 38.6873 27.4238 39.7105 29.9995 39.7105C32.5752 39.7105 35.0453 38.6873 36.8666 36.8661C38.6879 35.0448 39.711 32.5746 39.711 29.999C39.711 27.4233 38.6879 24.9531 36.8666 23.1319C35.0453 21.3106 32.5752 20.2874 29.9995 20.2874ZM28.6533 24.6151H31.3457V28.6059H35.3364V31.3936H31.3457V35.3844H28.6533V31.3936H24.6149V28.6059H28.6533V24.6151Z" fill="black"/>
</g>
<defs>
<clipPath id="clip0_2019_10951">
<rect width="40" height="40" fill="white"/>
</clipPath>
</defs>
</svg>
