<svg width="21" height="21" viewBox="0 0 21 21" fill="none" xmlns="http://www.w3.org/2000/svg">
<path d="M10.9316 11.6796C10.9316 11.335 10.6522 11.0556 10.3076 11.0556C9.96295 11.0556 9.68357 11.335 9.68357 11.6796V15.0077C9.68357 15.3524 9.96295 15.6317 10.3076 15.6317C10.6522 15.6317 10.9316 15.3524 10.9316 15.0077V11.6796Z" fill="#A6A6A6"/>
<path fill-rule="evenodd" clip-rule="evenodd" d="M10.3076 1.90332C7.66538 1.90332 5.52344 4.04525 5.52344 6.68746V7.12245L5.5011 7.12962C4.04463 7.60286 2.90273 8.74476 2.42949 10.2012C2.19497 10.923 2.1951 11.7893 2.19533 13.209V13.4783C2.1951 14.898 2.19497 15.7643 2.42949 16.4861C2.90273 17.9426 4.04463 19.0845 5.5011 19.5577C6.2229 19.7922 7.08921 19.7921 8.50886 19.7919H12.1063C13.526 19.7921 14.3923 19.7922 15.1141 19.5577C16.5705 19.0845 17.7124 17.9426 18.1857 16.4861C18.4202 15.7643 18.4201 14.898 18.4198 13.4783V13.209C18.4201 11.7893 18.4202 10.923 18.1857 10.2012C17.7124 8.74476 16.5705 7.60286 15.1141 7.12962L15.0917 7.12245V6.68746C15.0917 4.04525 12.9498 1.90332 10.3076 1.90332ZM8.57366 6.89547C7.84215 6.89544 7.2583 6.89542 6.77148 6.92298V6.68746C6.77148 4.73453 8.35465 3.15136 10.3076 3.15136C12.2605 3.15136 13.8437 4.73453 13.8437 6.68746V6.92298C13.3569 6.89542 12.773 6.89544 12.0415 6.89547H8.57366ZM6.25113 8.22945C6.74835 8.14569 7.41892 8.14351 8.64354 8.14351H11.9716C13.1963 8.14351 13.8668 8.14569 14.364 8.22945C14.5015 8.25261 14.6201 8.28139 14.7284 8.31658C15.8049 8.66636 16.6489 9.51037 16.9987 10.5869C17.1641 11.0959 17.1718 11.7465 17.1718 13.3437C17.1718 14.9409 17.1641 15.5915 16.9987 16.1004C16.6489 17.177 15.8049 18.021 14.7284 18.3708C14.2194 18.5361 13.5688 18.5438 11.9716 18.5438H8.64354C7.04633 18.5438 6.39573 18.5361 5.88677 18.3708C4.81024 18.021 3.96623 17.177 3.61645 16.1004C3.45108 15.5915 3.44338 14.9409 3.44338 13.3437C3.44338 11.7465 3.45108 11.0959 3.61645 10.5869C3.96623 9.51037 4.81024 8.66636 5.88677 8.31658C5.99507 8.28139 6.11364 8.25261 6.25113 8.22945Z" fill="#A6A6A6"/>
</svg>
