<svg width="20" height="20" viewBox="0 0 20 20" fill="none" xmlns="http://www.w3.org/2000/svg">
<path fill-rule="evenodd" clip-rule="evenodd" d="M9.98433 1.04004C7.80163 1.04004 6.03221 2.80946 6.03221 4.99216C6.03221 7.17485 7.80163 8.94428 9.98433 8.94428C12.167 8.94428 13.9364 7.17485 13.9364 4.99216C13.9364 2.80946 12.167 1.04004 9.98433 1.04004ZM7.28025 4.99216C7.28025 3.49874 8.4909 2.28808 9.98433 2.28808C11.4778 2.28808 12.6884 3.49874 12.6884 4.99216C12.6884 6.48558 11.4778 7.69624 9.98433 7.69624C8.4909 7.69624 7.28025 6.48558 7.28025 4.99216Z" fill="#A6A6A6"/>
<path fill-rule="evenodd" clip-rule="evenodd" d="M7.48825 10.1923C5.30556 10.1923 3.53613 11.9617 3.53613 14.1444C3.53613 16.3271 5.30556 18.0966 7.48825 18.0966H12.4804C14.6631 18.0966 16.4325 16.3271 16.4325 14.1444C16.4325 11.9617 14.6631 10.1923 12.4804 10.1923H7.48825ZM4.78417 14.1444C4.78417 12.651 5.99483 11.4404 7.48825 11.4404H12.4804C13.9738 11.4404 15.1845 12.651 15.1845 14.1444C15.1845 15.6379 13.9738 16.8485 12.4804 16.8485H7.48825C5.99483 16.8485 4.78417 15.6379 4.78417 14.1444Z" fill="#A6A6A6"/>
</svg>
