<svg width="20" height="21" viewBox="0 0 20 21" fill="none" xmlns="http://www.w3.org/2000/svg">
<g clip-path="url(#clip0_269_14080)">
<path d="M11.7309 7.35416C11.7309 8.31859 10.9491 9.10041 9.98469 9.10041V10.6004C11.7775 10.6004 13.2309 9.14701 13.2309 7.35416H11.7309ZM9.98469 9.10041C9.02026 9.10041 8.23844 8.31859 8.23844 7.35416H6.73844C6.73844 9.14701 8.19183 10.6004 9.98469 10.6004V9.10041ZM8.23844 7.35416C8.23844 6.38973 9.02026 5.60791 9.98469 5.60791V4.10791C8.19183 4.10791 6.73844 5.56131 6.73844 7.35416H8.23844ZM9.98469 5.60791C10.9491 5.60791 11.7309 6.38973 11.7309 7.35416H13.2309C13.2309 5.56131 11.7775 4.10791 9.98469 4.10791V5.60791ZM7.48844 13.0967H12.4809V11.5967H7.48844V13.0967ZM12.4809 16.5892H7.48844V18.0892H12.4809V16.5892ZM7.48844 16.5892C6.52401 16.5892 5.74219 15.8073 5.74219 14.8429H4.24219C4.24219 16.6358 5.69558 18.0892 7.48844 18.0892V16.5892ZM14.2272 14.8429C14.2272 15.8073 13.4454 16.5892 12.4809 16.5892V18.0892C14.2738 18.0892 15.7272 16.6358 15.7272 14.8429H14.2272ZM12.4809 13.0967C13.4454 13.0967 14.2272 13.8785 14.2272 14.8429H15.7272C15.7272 13.0501 14.2738 11.5967 12.4809 11.5967V13.0967ZM7.48844 11.5967C5.69558 11.5967 4.24219 13.0501 4.24219 14.8429H5.74219C5.74219 13.8785 6.52401 13.0967 7.48844 13.0967V11.5967Z" fill="#A5A5A5"/>
<path d="M6.45041 9.54978C6.31917 9.33894 6.07292 9.22639 5.82457 9.22639C4.79059 9.22639 3.95238 8.38818 3.95238 7.3542C3.95238 6.32022 4.79059 5.48201 5.82457 5.48201C6.07292 5.48201 6.31917 5.36945 6.45041 5.15862C6.45622 5.1493 6.46206 5.14 6.46793 5.13072C6.68644 4.78581 6.57573 4.29746 6.16989 4.25278C6.0565 4.24029 5.94128 4.23389 5.82457 4.23389C4.10127 4.23389 2.70426 5.6309 2.70426 7.3542C2.70426 9.0775 4.10127 10.4745 5.82457 10.4745C5.94128 10.4745 6.0565 10.4681 6.16989 10.4556C6.57573 10.4109 6.68644 9.92258 6.46793 9.57768C6.46206 9.5684 6.45622 9.5591 6.45041 9.54978Z" fill="#A5A5A5"/>
<path d="M3.91768 16.1467C3.82322 15.9891 3.65649 15.8831 3.47276 15.8831H3.32832C2.29434 15.8831 1.45613 15.0448 1.45613 14.0109C1.45613 12.9769 2.29434 12.1387 3.32832 12.1387H3.47276C3.65649 12.1387 3.82322 12.0326 3.91768 11.875C4.14825 11.4903 3.89804 10.8906 3.44955 10.8906H3.32832C1.60502 10.8906 0.208008 12.2876 0.208008 14.0109C0.208008 15.7342 1.60502 17.1312 3.32832 17.1312H3.44955C3.89804 17.1312 4.14825 16.5314 3.91768 16.1467Z" fill="#A5A5A5"/>
<path d="M13.502 9.57768C13.2835 9.92258 13.3942 10.4109 13.8001 10.4556C13.9135 10.4681 14.0287 10.4745 14.1454 10.4745C15.8687 10.4745 17.2657 9.0775 17.2657 7.3542C17.2657 5.6309 15.8687 4.23389 14.1454 4.23389C14.0287 4.23389 13.9135 4.24029 13.8001 4.25278C13.3942 4.29746 13.2835 4.78581 13.502 5.13072C13.5079 5.13999 13.5138 5.14929 13.5196 5.15862C13.6508 5.36945 13.8971 5.48201 14.1454 5.48201C15.1794 5.48201 16.0176 6.32022 16.0176 7.3542C16.0176 8.38818 15.1794 9.22639 14.1454 9.22639C13.8971 9.22639 13.6508 9.33894 13.5196 9.54978C13.5138 9.5591 13.5079 9.5684 13.502 9.57768Z" fill="#A5A5A5"/>
<path d="M16.0523 16.1467C15.8217 16.5314 16.0719 17.1312 16.5204 17.1312H16.6417C18.365 17.1312 19.762 15.7342 19.762 14.0109C19.762 12.2876 18.365 10.8906 16.6417 10.8906H16.5204C16.0719 10.8906 15.8217 11.4903 16.0523 11.875C16.1468 12.0326 16.3135 12.1387 16.4972 12.1387H16.6417C17.6756 12.1387 18.5138 12.9769 18.5138 14.0109C18.5138 15.0448 17.6756 15.8831 16.6417 15.8831H16.4972C16.3135 15.8831 16.1468 15.9891 16.0523 16.1467Z" fill="#A5A5A5"/>
</g>
<defs>
<clipPath id="clip0_269_14080">
<rect width="19.97" height="19.97" fill="white" transform="translate(0 0.905762)"/>
</clipPath>
</defs>
</svg>
