<svg width="20" height="20" viewBox="0 0 20 20" fill="none" xmlns="http://www.w3.org/2000/svg">
<g clip-path="url(#clip0_2002_11631)">
<path d="M2.63672 8.36965C2.63672 9.09429 2.77945 9.81184 3.05676 10.4813C3.33407 11.1508 3.74053 11.7591 4.25293 12.2715C4.76533 12.7839 5.37364 13.1904 6.04312 13.4677C6.71261 13.745 7.43016 13.8877 8.1548 13.8877C8.87945 13.8877 9.597 13.745 10.2665 13.4677C10.936 13.1904 11.5443 12.7839 12.0567 12.2715C12.5691 11.7591 12.9755 11.1508 13.2528 10.4813C13.5302 9.81184 13.6729 9.09429 13.6729 8.36965C13.6729 7.645 13.5302 6.92745 13.2528 6.25797C12.9755 5.58848 12.5691 4.98017 12.0567 4.46777C11.5443 3.95537 10.936 3.54891 10.2665 3.2716C9.597 2.99429 8.87945 2.85156 8.1548 2.85156C7.43016 2.85156 6.71261 2.99429 6.04312 3.2716C5.37364 3.54891 4.76533 3.95537 4.25293 4.46777C3.74053 4.98017 3.33407 5.58848 3.05676 6.25797C2.77945 6.92745 2.63672 7.645 2.63672 8.36965Z" stroke="#212121" stroke-width="1.89191" stroke-linecap="round" stroke-linejoin="round"/>
<path d="M16.8255 17.0408L12.0957 12.311Z" fill="#212121"/>
<path d="M16.8255 17.0408L12.0957 12.311" stroke="#212121" stroke-width="1.89191" stroke-linecap="round" stroke-linejoin="round"/>
</g>
<defs>
<clipPath id="clip0_2002_11631">
<rect width="18.9191" height="18.9191" fill="white" transform="translate(0.271484 0.486816)"/>
</clipPath>
</defs>
</svg>
