<svg width="15" height="16" viewBox="0 0 15 16" fill="none" xmlns="http://www.w3.org/2000/svg">
<g clip-path="url(#clip0_260_5845)">
<path fill-rule="evenodd" clip-rule="evenodd" d="M7.49948 5.65608C6.20506 5.65608 5.15573 6.70541 5.15573 7.99983C5.15573 9.29424 6.20506 10.3436 7.49948 10.3436C8.7939 10.3436 9.84323 9.29424 9.84323 7.99983C9.84323 6.70541 8.7939 5.65608 7.49948 5.65608ZM6.09323 7.99983C6.09323 7.22318 6.72283 6.59358 7.49948 6.59358C8.27613 6.59358 8.90573 7.22318 8.90573 7.99983C8.90573 8.77648 8.27613 9.40608 7.49948 9.40608C6.72283 9.40608 6.09323 8.77648 6.09323 7.99983Z" fill="#021A48"/>
<path fill-rule="evenodd" clip-rule="evenodd" d="M9.63367 2.52C9.02092 0.372889 5.97804 0.37289 5.36528 2.52C5.17543 3.18526 4.49196 3.57985 3.82091 3.41165C1.65507 2.86875 0.133636 5.50396 1.68671 7.10818C2.16791 7.60523 2.16791 8.39443 1.68671 8.89147C0.133636 10.4957 1.65508 13.1309 3.82091 12.588C4.49196 12.4198 5.17543 12.8144 5.36528 13.4797C5.97804 15.6268 9.02092 15.6268 9.63367 13.4797C9.82353 12.8144 10.507 12.4198 11.178 12.588C13.3439 13.1309 14.8653 10.4957 13.3122 8.89147C12.831 8.39443 12.831 7.60523 13.3122 7.10818C14.8653 5.50396 13.3439 2.86875 11.178 3.41165C10.507 3.57985 9.82353 3.18526 9.63367 2.52ZM6.26679 2.77728C6.62071 1.53713 8.37825 1.53713 8.73217 2.77728C9.06087 3.92905 10.2442 4.61224 11.406 4.32101C12.657 4.00744 13.5357 5.52951 12.6387 6.4561C11.8056 7.31665 11.8056 8.68301 12.6387 9.54356C13.5357 10.4701 12.657 11.9922 11.406 11.6786C10.2442 11.3874 9.06087 12.0706 8.73217 13.2224C8.37825 14.4625 6.62071 14.4625 6.26679 13.2224C5.93809 12.0706 4.75478 11.3874 3.59296 11.6786C2.342 11.9922 1.46323 10.4701 2.36027 9.54356C3.19339 8.68301 3.19339 7.31665 2.36027 6.4561C1.46323 5.52951 2.342 4.00744 3.59296 4.32101C4.75478 4.61224 5.93809 3.92906 6.26679 2.77728Z" fill="#021A48"/>
</g>
<defs>
<clipPath id="clip0_260_5845">
<rect width="15" height="15" fill="white" transform="translate(0 0.5)"/>
</clipPath>
</defs>
</svg>
