<svg width="41" height="41" viewBox="0 0 41 41" fill="none" xmlns="http://www.w3.org/2000/svg">
<rect x="0.553711" y="0.465332" width="40.3464" height="40.3464" rx="20.1732" fill="#A6D87E"/>
<path d="M28.7966 10.9553H26.3757V10.1483C26.3757 9.93427 26.2907 9.72901 26.1393 9.57767C25.988 9.42633 25.7827 9.34131 25.5687 9.34131C25.3547 9.34131 25.1494 9.42633 24.9981 9.57767C24.8467 9.72901 24.7617 9.93427 24.7617 10.1483V10.9553H16.6919V10.1483C16.6919 9.93427 16.6068 9.72901 16.4555 9.57767C16.3042 9.42633 16.0989 9.34131 15.8849 9.34131C15.6709 9.34131 15.4656 9.42633 15.3143 9.57767C15.1629 9.72901 15.0779 9.93427 15.0779 10.1483V10.9553H12.6569C12.2289 10.9553 11.8184 11.1253 11.5157 11.428C11.213 11.7307 11.043 12.1412 11.043 12.5692V28.7089C11.043 29.137 11.213 29.5475 11.5157 29.8502C11.8184 30.1529 12.2289 30.3229 12.6569 30.3229H28.7966C29.2247 30.3229 29.6352 30.1529 29.9379 29.8502C30.2406 29.5475 30.4106 29.137 30.4106 28.7089V12.5692C30.4106 12.1412 30.2406 11.7307 29.9379 11.428C29.6352 11.1253 29.2247 10.9553 28.7966 10.9553ZM19.1128 26.288C19.1128 26.502 19.0278 26.7073 18.8765 26.8586C18.7251 27.01 18.5199 27.095 18.3058 27.095C18.0918 27.095 17.8865 27.01 17.7352 26.8586C17.5839 26.7073 17.4988 26.502 17.4988 26.288V21.1374L17.053 21.3613C16.8614 21.4571 16.6397 21.4729 16.4365 21.4052C16.2333 21.3374 16.0654 21.1918 15.9696 21.0002C15.8738 20.8087 15.8581 20.5869 15.9258 20.3837C15.9935 20.1806 16.1392 20.0126 16.3307 19.9168L17.9447 19.1099C18.0678 19.0483 18.2046 19.0192 18.3421 19.0254C18.4795 19.0315 18.6132 19.0728 18.7302 19.1452C18.8473 19.2175 18.9439 19.3186 19.0108 19.4389C19.0778 19.5591 19.1129 19.6945 19.1128 19.8321V26.288ZM24.7617 25.481C24.9757 25.481 25.181 25.566 25.3323 25.7174C25.4837 25.8687 25.5687 26.074 25.5687 26.288C25.5687 26.502 25.4837 26.7073 25.3323 26.8586C25.181 27.01 24.9757 27.095 24.7617 27.095H21.5338C21.3839 27.095 21.237 27.0532 21.1095 26.9745C20.982 26.8957 20.879 26.7829 20.812 26.6489C20.745 26.5148 20.7166 26.3648 20.73 26.2155C20.7435 26.0663 20.7983 25.9237 20.8882 25.8038L23.7913 21.9333C23.8573 21.8454 23.9047 21.7449 23.9305 21.638C23.9563 21.5312 23.96 21.4201 23.9414 21.3118C23.9227 21.2034 23.8821 21.1 23.8221 21.0079C23.7621 20.9158 23.6838 20.8369 23.5922 20.7762C23.5006 20.7154 23.3975 20.674 23.2893 20.6545C23.1811 20.6349 23.0701 20.6377 22.963 20.6627C22.8559 20.6876 22.755 20.7342 22.6666 20.7995C22.5782 20.8649 22.504 20.9476 22.4487 21.0426C22.3973 21.1373 22.3274 21.2207 22.2432 21.288C22.159 21.3553 22.0622 21.405 21.9585 21.4342C21.8547 21.4634 21.7462 21.4716 21.6393 21.4582C21.5324 21.4448 21.4292 21.4102 21.3359 21.3563C21.2426 21.3024 21.161 21.2303 21.096 21.1444C21.031 21.0585 20.9838 20.9604 20.9573 20.8559C20.9308 20.7515 20.9255 20.6428 20.9417 20.5362C20.9579 20.4297 20.9953 20.3275 21.0516 20.2356C21.3182 19.7743 21.7295 19.4138 22.2217 19.21C22.714 19.0062 23.2598 18.9705 23.7744 19.1084C24.289 19.2463 24.7438 19.5502 25.0682 19.9728C25.3926 20.3954 25.5685 20.9133 25.5687 21.4461C25.5704 21.9724 25.3988 22.4846 25.0805 22.9037L23.1477 25.481H24.7617ZM12.6569 15.7972V12.5692H15.0779V13.3762C15.0779 13.5903 15.1629 13.7955 15.3143 13.9469C15.4656 14.0982 15.6709 14.1832 15.8849 14.1832C16.0989 14.1832 16.3042 14.0982 16.4555 13.9469C16.6068 13.7955 16.6919 13.5903 16.6919 13.3762V12.5692H24.7617V13.3762C24.7617 13.5903 24.8467 13.7955 24.9981 13.9469C25.1494 14.0982 25.3547 14.1832 25.5687 14.1832C25.7827 14.1832 25.988 14.0982 26.1393 13.9469C26.2907 13.7955 26.3757 13.5903 26.3757 13.3762V12.5692H28.7966V15.7972H12.6569Z" fill="#14532D"/>
</svg>
