<svg width="16" height="16" viewBox="0 0 16 16" fill="none" xmlns="http://www.w3.org/2000/svg">
<path fill-rule="evenodd" clip-rule="evenodd" d="M10.52 7.00299C10.9149 6.04407 9.95594 5.08514 8.99701 5.47999L7.21243 6.21482C6.76036 6.40096 6.40137 6.75996 6.21522 7.21202L5.4804 8.9966C5.08555 9.95553 6.04447 10.9145 7.00339 10.5196L8.78798 9.78477C9.24004 9.59863 9.59904 9.23964 9.78518 8.78757L10.52 7.00299ZM9.37776 6.40467C9.51475 6.34826 9.65174 6.48525 9.59533 6.62224L8.8605 8.40682C8.77589 8.61231 8.61271 8.77549 8.40723 8.8601L6.62264 9.59493C6.48566 9.65133 6.34867 9.51435 6.40507 9.37735L7.1399 7.59277C7.22451 7.38729 7.38769 7.22411 7.59318 7.1395L9.37776 6.40467Z" fill="#021A48"/>
<path fill-rule="evenodd" clip-rule="evenodd" d="M8.19035 0.686845C8.06371 0.680557 7.93683 0.680557 7.81018 0.686845C7.32128 0.711118 6.87117 0.853179 6.36939 1.08603C5.88091 1.31271 5.31329 1.64043 4.59518 2.05504L4.55451 2.07852C3.83639 2.49312 3.26876 2.82084 2.82821 3.13053C2.37567 3.44865 2.02759 3.76743 1.76211 4.1787C1.69334 4.28523 1.6299 4.39512 1.57202 4.50794C1.34859 4.94348 1.24657 5.40432 1.19733 5.95529C1.14941 6.49167 1.14941 7.14711 1.14941 7.97632V8.02327C1.14941 8.85248 1.14941 9.50792 1.19733 10.0443C1.24657 10.5953 1.34859 11.0561 1.57202 11.4916C1.6299 11.6045 1.69334 11.7144 1.76211 11.8209C2.02759 12.2322 2.37567 12.5509 2.82821 12.8691C3.26875 13.1787 3.83635 13.5064 4.55443 13.921L4.59517 13.9445C5.31328 14.3592 5.88091 14.6869 6.36939 14.9136C6.87117 15.1464 7.32128 15.2885 7.81018 15.3127C7.93683 15.319 8.06371 15.319 8.19035 15.3127C8.67926 15.2885 9.12937 15.1464 9.63114 14.9136C10.1196 14.6869 10.6873 14.3592 11.4054 13.9445L11.446 13.9211C12.1642 13.5065 12.7318 13.1787 13.1723 12.8691C13.6249 12.5509 13.9729 12.2322 14.2384 11.8209C14.3072 11.7144 14.3706 11.6045 14.4285 11.4916C14.6519 11.0561 14.754 10.5953 14.8032 10.0443C14.8511 9.50792 14.8511 8.8525 14.8511 8.02331V7.97632C14.8511 7.14713 14.8511 6.49166 14.8032 5.95529C14.754 5.40432 14.6519 4.94348 14.4285 4.50794C14.3706 4.39511 14.3072 4.28523 14.2384 4.1787C13.9729 3.76743 13.6249 3.44865 13.1723 3.13053C12.7318 2.82084 12.1641 2.49312 11.446 2.07852L11.4054 2.05504C10.6872 1.64043 10.1196 1.31271 9.63114 1.08603C9.12937 0.853179 8.67926 0.711118 8.19035 0.686845ZM7.85977 1.68561C7.95338 1.68097 8.04716 1.68097 8.14077 1.68561C8.45598 1.70126 8.7756 1.79144 9.2102 1.99312C9.65348 2.19883 10.1828 2.50388 10.9257 2.93281C11.6686 3.36174 12.1974 3.66758 12.5972 3.94862C12.9892 4.22416 13.2271 4.45587 13.3983 4.72103C13.4491 4.79977 13.496 4.88099 13.5388 4.96438C13.6828 5.24519 13.7645 5.56708 13.8072 6.04429C13.8507 6.53104 13.8511 7.14194 13.8511 7.99979C13.8511 8.85765 13.8507 9.46855 13.8072 9.9553C13.7645 10.4325 13.6828 10.7544 13.5388 11.0352C13.496 11.1186 13.4491 11.1998 13.3983 11.2786C13.2271 11.5437 12.9892 11.7754 12.5972 12.051C12.1974 12.332 11.6686 12.6379 10.9257 13.0668C10.1828 13.4957 9.65348 13.8008 9.2102 14.0065C8.7756 14.2081 8.45598 14.2983 8.14077 14.314C8.04716 14.3186 7.95338 14.3186 7.85977 14.314C7.54455 14.2983 7.22493 14.2081 6.79033 14.0065C6.34705 13.8008 5.81777 13.4957 5.07484 13.0668C4.33191 12.6379 3.80309 12.332 3.4033 12.051C3.01134 11.7754 2.77344 11.5437 2.60228 11.2786C2.55145 11.1998 2.50456 11.1186 2.46178 11.0352C2.31772 10.7544 2.23601 10.4325 2.19337 9.9553C2.14987 9.46855 2.14941 8.85765 2.14941 7.99979C2.14941 7.14194 2.14987 6.53104 2.19337 6.04429C2.23601 5.56708 2.31772 5.24519 2.46178 4.96438C2.50456 4.88099 2.55145 4.79977 2.60228 4.72103C2.77344 4.45587 3.01134 4.22416 3.4033 3.94862C3.80309 3.66758 4.33191 3.36174 5.07484 2.93281C5.81777 2.50388 6.34705 2.19883 6.79033 1.99312C7.22493 1.79144 7.54455 1.70126 7.85977 1.68561Z" fill="#021A48"/>
</svg>
