<svg width="18" height="18" viewBox="0 0 18 18" fill="none" xmlns="http://www.w3.org/2000/svg">
<path fill-rule="evenodd" clip-rule="evenodd" d="M12.5378 1.5376C12.0891 1.5376 11.7185 1.72534 11.3676 1.993C11.0353 2.24659 10.6662 2.61565 10.2237 3.05824L6.40558 6.87628C6.11239 7.16899 5.88056 7.40044 5.73838 7.69626C5.5962 7.99208 5.5603 8.31769 5.51488 8.72949L5.50256 8.84078C5.41761 9.60509 5.34759 10.2351 5.36362 10.7314C5.38038 11.2504 5.49254 11.7258 5.86411 12.0973C6.23568 12.4689 6.71109 12.5811 7.2301 12.5978C7.72635 12.6139 8.35634 12.5438 9.12064 12.4589L9.23198 12.4466C9.64376 12.4011 9.96938 12.3652 10.2652 12.2231C10.561 12.0809 10.7924 11.8491 11.0852 11.5559L14.9032 7.73778C15.3458 7.29521 15.7149 6.92617 15.9684 6.5938C16.2361 6.24299 16.4238 5.87233 16.4238 5.42362C16.4238 4.97491 16.2361 4.60425 15.9684 4.25344C15.7149 3.92107 15.3458 3.55203 14.9032 3.10947L14.852 3.05826C14.4094 2.61566 14.0404 2.24659 13.708 1.993C13.3572 1.72534 12.9865 1.5376 12.5378 1.5376ZM14.5073 6.65418L11.3073 3.45418C11.5898 3.17577 11.8084 2.97104 12.0015 2.82374C12.2593 2.62699 12.4094 2.58252 12.5378 2.58252C12.6662 2.58252 12.8163 2.62699 13.0742 2.82374C13.3441 3.02968 13.6639 3.34787 14.1387 3.82273C14.6136 4.29758 14.9318 4.61734 15.1377 4.88727C15.3345 5.14514 15.3789 5.29524 15.3789 5.42362C15.3789 5.552 15.3345 5.7021 15.1377 5.95997C14.9904 6.15304 14.7857 6.3716 14.5073 6.65418ZM10.5675 4.19216L13.7693 7.39395L10.3966 10.7666C10.0292 11.134 9.92768 11.2259 9.81254 11.2813C9.6974 11.3366 9.56221 11.3585 9.04576 11.4159C8.23073 11.5064 7.67601 11.5668 7.26382 11.5534C6.86566 11.5406 6.70491 11.4604 6.60299 11.3585C6.50106 11.2565 6.42086 11.0958 6.408 10.6976C6.39469 10.2854 6.45503 9.73072 6.54559 8.91569C6.60297 8.39925 6.62484 8.26405 6.68018 8.14891C6.73551 8.03377 6.82743 7.93224 7.19485 7.56481L10.5675 4.19216Z" fill="#FBFBFB"/>
<path d="M7.1609 3.40346C7.44942 3.4 7.68052 3.1633 7.67706 2.87477C7.6736 2.58624 7.4369 2.35515 7.14837 2.35861C5.45802 2.37887 4.29777 2.47136 3.407 3.11854C3.06695 3.3656 2.76791 3.66465 2.52085 4.0047C2.11275 4.56639 1.93002 5.22426 1.84205 6.0362C1.75585 6.83183 1.75585 7.83468 1.75586 9.11404V9.17708C1.75585 10.4564 1.75585 11.4593 1.84205 12.2549C1.93002 13.0669 2.11275 13.7247 2.52085 14.2864C2.76791 14.6265 3.06695 14.9255 3.407 15.1726C3.9687 15.5807 4.62657 15.7634 5.4385 15.8514C6.23412 15.9376 7.23695 15.9376 8.51628 15.9376H8.5794C9.85873 15.9376 10.8616 15.9376 11.6572 15.8514C12.4692 15.7634 13.127 15.5807 13.6887 15.1726C14.0288 14.9255 14.3278 14.6265 14.5749 14.2864C15.2221 13.3957 15.3146 12.2354 15.3348 10.5451C15.3383 10.2565 15.1072 10.0198 14.8187 10.0164C14.5301 10.0129 14.2934 10.244 14.29 10.5325C14.2691 12.2746 14.1518 13.091 13.7295 13.6722C13.5469 13.9236 13.3259 14.1446 13.0745 14.3272C12.7207 14.5843 12.2677 14.7342 11.5447 14.8125C10.8119 14.8919 9.86557 14.8926 8.54787 14.8926C7.23017 14.8926 6.28386 14.8919 5.55106 14.8125C4.82803 14.7342 4.37508 14.5843 4.02119 14.3272C3.76985 14.1446 3.54882 13.9236 3.36621 13.6722C3.1091 13.3183 2.95923 12.8654 2.8809 12.1424C2.8015 11.4096 2.80078 10.4633 2.80078 9.14556C2.80078 7.82786 2.8015 6.88155 2.8809 6.14875C2.95923 5.42572 3.1091 4.97277 3.36621 4.61889C3.54882 4.36755 3.76985 4.14651 4.02119 3.9639C4.60242 3.54162 5.4188 3.42434 7.1609 3.40346Z" fill="#FBFBFB"/>
</svg>
