<svg width="126" height="126" viewBox="0 0 126 126" fill="none" xmlns="http://www.w3.org/2000/svg">
<path d="M25.1064 41.6768L25.2237 42.4176L25.1064 41.6768ZM46.9268 19.8564L47.6676 19.9737L46.9268 19.8564ZM99.4294 110.487L98.9885 109.88L99.4294 110.487ZM105.237 104.679L104.63 104.239L105.237 104.679ZM20.7633 104.679L21.3701 104.239L20.7633 104.679ZM26.5706 110.487L27.0115 109.88L26.5706 110.487ZM26.5706 15.5133L26.1298 14.9065L26.5706 15.5133ZM20.7633 21.3206L20.1565 20.8798L20.7633 21.3206ZM99.4294 15.5133L98.9885 16.1201L99.4294 15.5133ZM105.237 21.3206L104.63 21.7615L105.237 21.3206ZM47.25 10.6519L47.2243 9.90231L47.25 10.6519ZM15.9019 42L15.1523 41.9743L15.9019 42ZM62.25 89.25C62.25 89.6642 62.5858 90 63 90C63.4142 90 63.75 89.6642 63.75 89.25H62.25ZM41.4673 63.522C41.1757 63.8162 41.1778 64.2911 41.472 64.5827C41.7662 64.8743 42.2411 64.8722 42.5327 64.578L41.4673 63.522ZM49.3387 56.6455L49.8714 57.1735L49.3387 56.6455ZM76.6613 56.6455L76.1286 57.1735L76.6613 56.6455ZM83.4673 64.578C83.7589 64.8722 84.2338 64.8743 84.528 64.5827C84.8222 64.2911 84.8243 63.8162 84.5327 63.522L83.4673 64.578ZM61.684 47.3335L61.5892 46.5896L61.684 47.3335ZM64.316 47.3335L64.4108 46.5896H64.4108L64.316 47.3335ZM63 47.25V46.5V47.25ZM25.2237 42.4176C36.7768 40.5878 45.8378 31.5268 47.6676 19.9737L46.1861 19.7391C44.4579 30.6503 35.9003 39.2079 24.9891 40.9361L25.2237 42.4176ZM15 57.75V68.25H16.5V57.75H15ZM111 68.25V57.75H109.5V68.25H111ZM63 116.25C72.8263 116.25 80.2563 116.251 86.0902 115.619C91.938 114.985 96.2709 113.708 99.8702 111.093L98.9885 109.88C95.6876 112.278 91.6488 113.508 85.9286 114.128C80.1943 114.749 72.8598 114.75 63 114.75V116.25ZM109.5 68.25C109.5 78.1098 109.499 85.4443 108.878 91.1786C108.258 96.8988 107.028 100.938 104.63 104.239L105.843 105.12C108.458 101.521 109.735 97.188 110.369 91.3402C111.001 85.5063 111 78.0763 111 68.25H109.5ZM99.8702 111.093C102.162 109.428 104.178 107.412 105.843 105.12L104.63 104.239C103.057 106.403 101.153 108.307 98.9885 109.88L99.8702 111.093ZM15 68.25C15 78.0763 14.999 85.5063 15.631 91.3402C16.2646 97.188 17.5415 101.521 20.1565 105.12L21.3701 104.239C18.9718 100.938 17.742 96.8988 17.1223 91.1786C16.501 85.4443 16.5 78.1098 16.5 68.25H15ZM63 114.75C53.1402 114.75 45.8057 114.749 40.0714 114.128C34.3512 113.508 30.3124 112.278 27.0115 109.88L26.1298 111.093C29.7291 113.708 34.062 114.985 39.9098 115.619C45.7437 116.251 53.1737 116.25 63 116.25V114.75ZM20.1565 105.12C21.8219 107.412 23.8376 109.428 26.1298 111.093L27.0115 109.88C24.8467 108.307 22.9429 106.403 21.3701 104.239L20.1565 105.12ZM26.1298 14.9065C23.8376 16.5719 21.8219 18.5876 20.1565 20.8798L21.3701 21.7615C22.9429 19.5967 24.8467 17.6929 27.0115 16.1201L26.1298 14.9065ZM63 11.25C72.8598 11.25 80.1943 11.251 85.9286 11.8723C91.6488 12.492 95.6876 13.7218 98.9885 16.1201L99.8702 14.9065C96.2709 12.2915 91.938 11.0146 86.0902 10.381C80.2563 9.74897 72.8263 9.75 63 9.75V11.25ZM111 57.75C111 47.9237 111.001 40.4937 110.369 34.6598C109.735 28.812 108.458 24.4791 105.843 20.8798L104.63 21.7615C107.028 25.0624 108.258 29.1012 108.878 34.8214C109.499 40.5557 109.5 47.8902 109.5 57.75H111ZM98.9885 16.1201C101.153 17.6929 103.057 19.5967 104.63 21.7615L105.843 20.8798C104.178 18.5876 102.162 16.5719 99.8702 14.9065L98.9885 16.1201ZM63 9.75C56.8673 9.75 51.6727 9.74991 47.2243 9.90231L47.2757 11.4014C51.6929 11.2501 56.859 11.25 63 11.25V9.75ZM47.2243 9.90231C37.4281 10.2379 31.078 11.3114 26.1298 14.9065L27.0115 16.1201C31.5616 12.8142 37.498 11.7364 47.2757 11.4014L47.2243 9.90231ZM46.5 10.6519C46.5 15.4556 46.4943 17.7926 46.1861 19.7391L47.6676 19.9737C47.9989 17.8818 48 15.4006 48 10.6519L46.5 10.6519ZM16.5 57.75C16.5 51.609 16.5001 46.4429 16.6514 42.0257L15.1523 41.9743C14.9999 46.4227 15 51.6173 15 57.75H16.5ZM16.6514 42.0257C16.9864 32.248 18.0642 26.3116 21.3701 21.7615L20.1565 20.8798C16.5614 25.828 15.4879 32.1781 15.1523 41.9743L16.6514 42.0257ZM15.9019 42.75C20.6506 42.75 23.1318 42.7489 25.2237 42.4176L24.9891 40.9361C23.0426 41.2443 20.7056 41.25 15.9019 41.25L15.9019 42.75ZM63.75 89.25V51.45H62.25V89.25H63.75ZM42.5327 64.578L49.8714 57.1735L48.806 56.1176L41.4673 63.522L42.5327 64.578ZM76.1286 57.1735L83.4673 64.578L84.5327 63.522L77.194 56.1176L76.1286 57.1735ZM49.8714 57.1735C52.81 54.2085 54.9702 52.0306 56.8382 50.5304C58.6943 49.0398 60.189 48.2802 61.7788 48.0775L61.5892 46.5896C59.6124 46.8415 57.8607 47.7854 55.8989 49.3609C53.949 50.9269 51.7198 53.1776 48.806 56.1176L49.8714 57.1735ZM77.194 56.1176C74.2802 53.1776 72.051 50.9269 70.1011 49.3609C68.1393 47.7854 66.3877 46.8415 64.4108 46.5896L64.2212 48.0775C65.811 48.2802 67.3057 49.0398 69.1618 50.5304C71.0298 52.0306 73.19 54.2085 76.1286 57.1735L77.194 56.1176ZM61.7788 48.0775C62.1843 48.0258 62.5921 48 63 48V46.5C62.5288 46.5 62.0576 46.5299 61.5892 46.5896L61.7788 48.0775ZM63 48C63.4079 48 63.8157 48.0258 64.2212 48.0775L64.4108 46.5896C63.9424 46.5299 63.4712 46.5 63 46.5V48ZM63.75 51.45V47.25H62.25V51.45H63.75Z" fill="#0C0C0C" fill-opacity="0.6"/>
</svg>
