<svg width="41" height="41" viewBox="0 0 41 41" fill="none" xmlns="http://www.w3.org/2000/svg">
<rect x="0.328125" y="0.465332" width="40.3464" height="40.3464" rx="20.1732" fill="#FDBA74"/>
<path d="M23.7294 22.4627V11.7621C23.7294 10.906 23.3893 10.085 22.7839 9.47962C22.1786 8.87427 21.3575 8.53418 20.5014 8.53418C19.6453 8.53418 18.8243 8.87427 18.2189 9.47962C17.6136 10.085 17.2735 10.906 17.2735 11.7621V22.4627C16.2866 23.1499 15.5447 24.1342 15.1559 25.2722C14.7671 26.4103 14.7516 27.6427 15.1118 28.7901C15.4719 29.9375 16.1888 30.9401 17.1582 31.6518C18.1276 32.3636 19.2988 32.7474 20.5014 32.7474C21.704 32.7474 22.8753 32.3636 23.8447 31.6518C24.814 30.9401 25.531 29.9375 25.8911 28.7901C26.2512 27.6427 26.2358 26.4103 25.847 25.2722C25.4582 24.1342 24.7163 23.1499 23.7294 22.4627ZM20.5014 10.1481C20.9295 10.1481 21.34 10.3182 21.6427 10.6209C21.9454 10.9235 22.1154 11.3341 22.1154 11.7621V18.218H18.8875V11.7621C18.8875 11.3341 19.0575 10.9235 19.3602 10.6209C19.6629 10.3182 20.0734 10.1481 20.5014 10.1481Z" fill="#EA580C"/>
</svg>
